<svg viewBox="0 0 174.29419 232.34698" xmlns="http://www.w3.org/2000/svg" xmlns:svg="http://www.w3.org/2000/svg"><g transform="translate(-6.0346748,-12.672474)"><path style="fill:#000946;stroke-width:0.215072" d="m 14.326436,244.68631 c -4.02594,-0.87597 -7.0895005,-3.97445 -7.9517642,-8.04242 -0.4533293,-2.13872 -0.4533293,-213.200816 0,-215.339524 0.8684792,-4.097292 4.0038042,-7.279982 8.1300172,-8.252834 1.164788,-0.274627 7.532311,-0.317877 47.204409,-0.320627 l 45.858002,-0.0032 0.062,31.88442 c 0.0591,30.370769 0.0809,31.940575 0.46023,33.067316 1.26492,3.757359 3.4752,5.967634 7.23255,7.232556 1.12675,0.379318 2.69655,0.401167 33.06732,0.460226 l 31.88442,0.062 -0.003,74.892717 c -0.003,65.27106 -0.044,75.0657 -0.32063,76.23913 -0.97285,4.1262 -4.15554,7.26154 -8.25283,8.13 -2.06432,0.43757 -155.358362,0.42804 -157.370548,-0.01 z M 163.06786,228.22984 v -5.80694 h -2.36151 -2.36151 l -0.058,-4.57028 -0.0581,-4.57028 H 93.169472 28.1102 l -0.05805,4.57028 -0.05805,4.57028 h -2.361513 -2.361515 v 5.80694 5.80694 h 69.898392 69.898386 z m -137.215916,0 v -3.22608 H 93.169472 160.487 v 3.22608 3.22608 H 93.169472 25.851944 Z m 4.731583,-9.14056 v -3.33361 h 62.585945 62.585948 v 3.33361 3.33362 H 93.169472 30.583527 Z m 2.365792,-25.0533 v -16.77302 l 8.118967,-0.0563 8.118967,-0.0564 v -2.3658 -2.36579 l -8.118967,-0.0563 -8.118967,-0.0564 v -17.95334 -17.95334 l 8.118967,-0.0564 8.118967,-0.0564 0.06104,-2.31202 0.06104,-2.31202 h -9.852731 c -10.800824,0 -10.442512,-0.0416 -11.132567,1.2928 -0.281623,0.5446 -0.321379,5.39841 -0.321379,39.23758 v 38.6161 h 2.473327 2.473328 z m 54.41321,-0.003 v -16.7752 h 5.806943 5.806943 v 16.77562 16.77561 h 2.365795 2.36579 v -38.72709 c 0,-28.09945 -0.0659,-38.85601 -0.24025,-39.19687 -0.63765,-1.24687 -0.3497,-1.21296 -10.298278,-1.21296 -9.948576,0 -9.660624,-0.0339 -10.298283,1.21296 -0.174316,0.34086 -0.240244,11.09742 -0.240244,39.19687 v 38.72709 h 2.365792 2.365792 z m 0,-39.68078 v -17.95851 h 5.806943 5.806943 v 17.95851 17.95851 h -5.806943 -5.806943 z m 57.665501,55.69666 c 1.5695,-0.41785 4.79459,-1.28206 7.16688,-1.92046 2.37229,-0.6384 4.72458,-1.26808 5.22731,-1.39928 l 0.91406,-0.23855 v -35.2486 c 0,-33.38441 -0.0199,-35.25495 -0.37638,-35.36111 -0.207,-0.0617 -3.83933,-1.03599 -8.07183,-2.16521 -7.688,-2.05113 -7.69795,-2.05312 -10.26969,-2.05312 h -2.57423 v 39.57324 39.57324 h 2.56514 c 2.25413,0 2.9111,-0.0921 5.41874,-0.75973 z m -3.03722,-38.81351 c 0,-31.87898 0.0191,-33.57474 0.37638,-33.47205 0.207,0.0595 2.60237,0.70026 5.32303,1.42394 2.72066,0.72368 5.11602,1.36553 5.32303,1.42633 0.35616,0.10461 0.37637,1.74925 0.37637,30.62798 v 30.51744 l -0.91405,0.23916 c -1.14522,0.29966 -9.59885,2.56681 -10.10838,2.71095 -0.35731,0.10107 -0.37638,-1.59542 -0.37638,-33.47375 z m 21.03355,-43.27611 -0.064,-1.33709 -4.94666,-3.45718 c -2.72066,-1.90145 -9.78577,-6.83526 -15.70025,-10.96401 -5.91448,-4.12876 -14.11959,-9.85911 -18.23359,-12.734106 l -7.47998,-5.227271 h -1.33714 -1.33715 L 103.54752,104.61639 93.169472,114.99279 82.791426,104.61639 72.413381,94.240003 h -1.337143 -1.337143 l -7.479984,5.227271 c -4.113994,2.874996 -12.319106,8.605346 -18.233585,12.734106 -5.91448,4.12875 -12.979594,9.06256 -15.700254,10.96401 l -4.946656,3.45718 -0.06403,1.33709 -0.06403,1.33707 H 93.169472 163.08839 Z M 29.626457,126.53012 c 0.112375,-0.10216 1.849619,-1.32861 3.860542,-2.72545 2.010923,-1.39683 6.656478,-4.63639 10.323455,-7.19901 3.666977,-2.56263 11.192008,-7.8206 16.722289,-11.68438 5.530281,-3.86378 10.127098,-7.025053 10.215151,-7.025053 0.08805,0 5.168926,5.008143 11.290836,11.129193 l 11.130742,11.1292 11.130738,-11.1292 c 6.12191,-6.12105 11.20279,-11.129193 11.29084,-11.129193 0.088,0 4.68487,3.161273 10.21515,7.025053 5.53028,3.86378 13.05531,9.12175 16.72229,11.68438 3.66698,2.56262 8.31253,5.80218 10.32345,7.19901 2.01093,1.39684 3.74817,2.62329 3.86055,2.72545 0.11475,0.10433 -27.73901,0.18575 -63.543018,0.18575 -35.804012,0 -63.657771,-0.0814 -63.543015,-0.18575 z M 147.79775,123.9583 v -1.25206 l -4.78535,-3.20213 c -2.63194,-1.76117 -9.56868,-6.42399 -15.41497,-10.36182 l -10.62962,-7.1597 h -1.30771 -1.30772 l -10.32177,10.32346 c -8.131662,8.13298 -10.436222,10.32345 -10.861138,10.32345 -0.424915,0 -2.729476,-2.19047 -10.861135,-10.32345 L 71.986562,101.98259 h -1.307715 -1.307713 l -10.62962,7.1597 c -5.846291,3.93783 -12.783029,8.60065 -15.414972,10.36182 l -4.785352,3.20213 v 1.25206 1.25207 H 93.169472 147.79775 Z M 122.20419,41.734816 V 12.672474 l 2.31202,0.104269 c 2.54626,0.114833 4.02144,0.532538 6.06119,1.716256 1.71532,0.995442 46.93551,46.215624 47.93095,47.930943 1.18372,2.039756 1.60142,3.514936 1.71625,6.061193 l 0.10427,2.312023 h -29.06234 -29.06234 z"/></g></svg>
