<svg viewBox="0 0 174.2942 232.34718" xmlns="http://www.w3.org/2000/svg" xmlns:svg="http://www.w3.org/2000/svg"><g transform="translate(-32.807511,-135.11358)"><path style="fill:#000946;stroke-width:0.215072" d="m 41.099273,367.12741 c -4.02594,-0.87596 -7.089501,-3.97444 -7.951764,-8.04242 -0.45333,-2.13872 -0.45333,-213.20081 0,-215.33952 0.868479,-4.09729 4.003804,-7.27998 8.130017,-8.25283 1.164788,-0.27463 7.532311,-0.31788 47.204409,-0.32063 l 45.858005,-0.003 0.062,31.88442 c 0.0591,30.37077 0.0809,31.94058 0.46022,33.06732 1.26493,3.75735 3.4752,5.96763 7.23256,7.23255 1.12674,0.37932 2.69655,0.40117 33.06732,0.46023 l 31.88442,0.062 -0.003,74.89272 c -0.003,65.27105 -0.044,75.0657 -0.32062,76.23913 -0.97285,4.1262 -4.15555,7.26154 -8.25284,8.13 -2.06431,0.43756 -155.358355,0.42804 -157.370541,-0.01 z M 170.69929,319.91565 v -4.30144 h -1.71497 -1.71497 l -0.0594,-3.27984 -0.0594,-3.27985 H 119.83477 72.518938 l -0.05937,3.27985 -0.05937,3.27984 h -1.714974 -1.714973 v 4.30144 4.30144 h 50.864519 50.86452 z m -99.793391,0.10754 v -2.25826 h 48.928871 48.92888 v 2.25826 2.25826 H 119.83477 70.905899 Z m 3.441151,-6.66723 v -2.25826 h 45.48772 45.48772 v 2.25826 2.25825 H 119.83477 74.34705 Z m 1.720576,-18.17358 v -12.25911 h 5.914479 5.91448 v -1.82811 -1.82811 h -5.91448 -5.914479 V 266.2552 253.24334 h 5.914479 5.91448 v -1.82811 -1.82811 H 80.8168 c -3.893882,0 -7.236453,0.0601 -7.427938,0.1336 -1.006225,0.38612 -0.97746,-0.4831 -0.97746,29.53565 v 28.18511 h 1.828112 1.828112 z m 39.573244,0 v -12.25911 h 4.1939 4.19391 v 12.2678 12.2678 l 1.77434,-0.0625 1.77434,-0.0625 v -28.35436 -28.35437 l -0.60344,-0.51905 -0.60344,-0.51904 h -6.53571 -6.53571 l -0.60344,0.51904 -0.60344,0.51903 -0.0562,28.13929 c -0.0309,15.4766 -0.01,28.26027 0.047,28.40814 0.0707,0.18422 0.64698,0.26886 1.8305,0.26886 h 1.72733 z m 0,-28.92718 v -13.01186 h 4.1939 4.19391 v 13.01186 13.01185 h -4.19391 -4.1939 z m 44.82454,39.79756 c 2.84883,-0.7638 5.51843,-1.47162 5.93244,-1.57294 l 0.75276,-0.18422 0.0546,-25.72643 c 0.0517,-24.36358 0.0347,-25.7326 -0.3226,-25.8429 -0.20749,-0.0641 -2.8855,-0.79657 -5.95113,-1.62781 -4.81269,-1.30494 -5.81866,-1.51134 -7.36622,-1.51134 h -1.79233 v 28.92718 28.92718 h 1.75637 c 1.48233,0 2.56458,-0.21669 6.93608,-1.38872 z m -5.03623,-27.51158 c 0,-13.32236 0.0726,-24.22507 0.16131,-24.22825 0.0887,-0.003 1.92758,0.44786 4.08637,1.00228 l 3.92506,1.00805 v 22.19611 22.19611 l -3.38738,0.88472 c -1.86307,0.4866 -3.70193,0.94744 -4.08637,1.02409 l -0.69899,0.13937 z m 15.27011,-31.48708 v -1.0275 l -10.05461,-7.02242 c -5.53004,-3.86234 -13.10326,-9.15518 -16.82938,-11.76188 -6.60594,-4.62133 -6.80154,-4.73963 -7.84901,-4.74685 l -1.07424,-0.007 -7.52977,7.52753 -7.52978,7.52754 -7.52523,-7.52754 -7.52523,-7.52753 -1.07651,0.007 c -1.05044,0.007 -1.24061,0.1222 -7.851282,4.74685 -3.726122,2.6067 -11.299344,7.89954 -16.829382,11.76187 l -10.054615,7.02242 v 1.02751 1.02751 h 50.864519 50.86452 z m -96.664094,-1.30275 c 0.112375,-0.0987 2.430313,-1.72804 5.150974,-3.62065 2.72066,-1.89261 9.108298,-6.34645 14.19475,-9.89742 5.086451,-3.55096 9.46612,-6.59067 9.7326,-6.7549 0.46651,-0.28752 0.78186,-10e-4 8.4964,7.71117 4.40655,4.40537 8.10773,8.00976 8.22485,8.00976 0.11712,0 3.81831,-3.60439 8.22485,-8.00976 7.71454,-7.71249 8.02989,-7.99869 8.49641,-7.71117 0.26648,0.16423 4.64614,3.20394 9.73259,6.7549 5.08646,3.55097 11.47409,8.00481 14.19476,9.89742 2.72066,1.89261 5.03859,3.52191 5.15097,3.62065 0.11237,0.0987 -20.49744,0.17955 -45.79958,0.17955 -25.30214,0 -45.911949,-0.0808 -45.799574,-0.17955 z m 85.695424,-1.54314 c 0,-0.5575 -0.13306,-0.97416 -0.37637,-1.17854 -0.20701,-0.17388 -5.26389,-3.60576 -11.23751,-7.6264 -10.22938,-6.88503 -10.9175,-7.31062 -11.83011,-7.31679 l -0.96898,-0.007 -7.52521,7.52752 c -4.90097,4.90247 -7.67603,7.52752 -7.95767,7.52752 -0.28164,0 -3.05669,-2.62505 -7.95766,-7.52752 l -7.52522,-7.52752 -0.96897,0.007 c -0.91262,0.006 -1.60073,0.43177 -11.830112,7.3168 -5.973624,4.02063 -11.030504,7.45251 -11.23751,7.6264 -0.243314,0.20438 -0.376376,0.62104 -0.376376,1.17854 v 0.86239 h 39.895848 39.89585 v -0.86239 z m -10.7536,-80.03229 v -29.06234 l 2.31203,0.10427 c 2.54625,0.11483 4.02144,0.53253 6.06119,1.71625 1.71532,0.99544 46.9355,46.21563 47.93094,47.93095 1.18372,2.03975 1.60143,3.51493 1.71626,6.06119 l 0.10427,2.31202 h -29.06234 -29.06235 z"/></g></svg>
