<svg
   viewBox="0 0 430.1637 430.14392"
   xmlns="http://www.w3.org/2000/svg"
   xmlns:svg="http://www.w3.org/2000/svg">
  <g
     transform="translate(-34.083979,20.879652)">
    <path
       style="fill:#000946;stroke-width:0.215072"
       d="m 34.093904,391.41329 v -17.85097 h 7.527519 7.527518 V 359.47511 345.38789 H 249.16587 449.18279 v 14.08722 14.08721 h 7.52752 7.52752 v 17.85097 17.85097 H 249.16587 34.093904 Z m 422.616406,0 V 381.08984 H 249.16587 41.621423 v 10.32345 10.32346 H 249.16587 456.71031 Z M 441.65527,363.23887 V 352.91541 H 249.16587 56.67646 v 10.32346 10.32345 h 192.48941 192.4894 z M 49.202134,218.5492 49.256477,99.238038 49.782888,98.168287 c 0.671422,-1.364436 1.986057,-2.679072 3.350494,-3.350494 l 1.06975,-0.52641 29.733699,-0.05601 29.733699,-0.05601 v 7.207147 7.20715 H 88.614646 63.558763 v 55.59611 55.5961 h 25.055883 25.055884 v 7.20491 7.20491 H 88.614646 63.558763 v 51.83234 51.83234 H 56.353275 49.14779 Z m 167.756126,0 0.0543,-119.311162 0.52641,-1.069751 c 0.67142,-1.364436 1.98606,-2.679072 3.35049,-3.350494 l 1.06975,-0.52641 h 27.20661 27.2066 l 1.06975,0.52641 c 1.36443,0.671422 2.67906,1.986058 3.35049,3.350494 l 0.52641,1.069751 0.0543,119.311162 0.0543,119.31117 h -7.20549 -7.20549 v -51.83234 -51.83234 h -17.85097 -17.85098 v 51.83234 51.83234 h -7.20548 -7.20549 z m 50.05858,-54.35943 v -55.5961 h -17.85097 -17.85098 v 55.5961 55.5961 h 17.85098 17.85097 z M 384.6612,216.02211 V 94.183847 h 7.1454 7.14538 l 25.11423,6.720993 25.11423,6.721 v 108.39627 108.39627 l -25.11423,6.721 -25.11423,6.72099 h -7.14538 -7.1454 z m 31.83844,98.92701 c 9.50355,-2.54658 17.50288,-4.68628 17.77625,-4.75491 l 0.49708,-0.12475 V 216.02211 121.97476 L 434.27589,121.85 c -0.27337,-0.0686 -8.2727,-2.20832 -17.77625,-4.7549 -9.50356,-2.54657 -17.31282,-4.63014 -17.35392,-4.63014 -0.0411,0 -0.0747,46.60072 -0.0747,103.55715 0,56.95643 0.0336,103.55715 0.0747,103.55715 0.0411,0 7.85036,-2.08358 17.35392,-4.63014 z M 34.142709,82.893203 34.201439,79.13008 105.81981,29.125213 177.43818,-20.879652 h 3.65655 3.65655 l 32.20729,32.206757 32.2073,32.206757 32.20728,-32.206757 32.20731,-32.206757 h 3.65654 3.65655 l 71.61838,50.004865 71.61836,50.004867 0.0587,3.763123 0.0587,3.763125 H 249.16587 34.083979 Z M 445.30764,78.616798 C 444.89576,78.335192 416.05743,58.203477 381.22248,33.879654 l -63.33626,-44.225135 -34.36018,34.35967 -34.36017,34.359673 -34.36018,-34.359673 -34.36017,-34.35967 -63.33627,44.225135 C 82.274307,58.203477 53.435979,78.335192 53.024079,78.616798 l -0.74891,0.512011 H 249.16587 446.05657 Z M 81.24347,70.634168 81.302199,66.87111 128.72415,34.932223 176.14609,2.9933357 h 3.65792 3.65792 l 31.93764,31.9381863 31.93764,31.938185 h 1.82866 1.82865 L 282.93216,34.931522 314.86981,2.9933357 h 3.6579 3.65793 l 47.42194,31.9388873 47.42195,31.938887 0.0587,3.763058 0.0587,3.763058 H 249.16587 81.184738 Z"
       />
  </g>
</svg>
