<?xml version="1.0" encoding="UTF-8"?>
<!DOCTYPE svg PUBLIC "-//W3C//DTD SVG 1.1//EN" "http://www.w3.org/Graphics/SVG/1.1/DTD/svg11.dtd">
<svg xmlns="http://www.w3.org/2000/svg" version="1.1" width="1566px" height="584px" style="shape-rendering:geometricPrecision; text-rendering:geometricPrecision; image-rendering:optimizeQuality; fill-rule:evenodd; clip-rule:evenodd" xmlns:xlink="http://www.w3.org/1999/xlink">
<g><path style="opacity:1" fill="#0a0a0a" d="M 280.5,0.5 C 280.427,2.02694 281.094,3.02694 282.5,3.5C 284.712,18.4154 291.045,31.4154 301.5,42.5C 302.5,45.5 304.5,47.5 307.5,48.5C 320.791,60.5228 334.791,61.5228 349.5,51.5C 350.906,51.0269 351.573,50.0269 351.5,48.5C 352.32,46.8599 353.153,45.1932 354,43.5C 354.927,37.4839 355.927,31.4839 357,25.5C 357.748,23.249 359.248,21.9156 361.5,21.5C 362.833,21.5 364.167,21.5 365.5,21.5C 365.5,24.5 365.5,27.5 365.5,30.5C 361.171,54.6741 349.171,74.1741 329.5,89C 323.528,93.9812 316.862,97.6479 309.5,100C 300.612,99.952 291.778,99.1187 283,97.5C 275.614,97.553 270.281,100.886 267,107.5C 266.611,130.506 266.945,153.506 268,176.5C 271.833,179 275.667,181.5 279.5,184C 299.163,184.063 318.83,183.896 338.5,183.5C 335.511,200.462 332.677,217.462 330,234.5C 326.172,237.907 321.672,239.24 316.5,238.5C 304.838,236.499 293.172,236.332 281.5,238C 269.056,242.13 263.389,250.797 264.5,264C 266.805,299.224 265.971,334.39 262,369.5C 258.508,399.139 250.508,427.472 238,454.5C 212.256,474.154 184.423,477.987 154.5,466C 140.959,460.072 128.293,452.905 116.5,444.5C 116.027,443.094 115.027,442.427 113.5,442.5C 111.566,441.89 109.899,440.89 108.5,439.5C 108.027,438.094 107.027,437.427 105.5,437.5C 88.856,427.06 71.1893,418.56 52.5,412C 32.1959,410.281 19.6959,419.448 15,439.5C 13.6968,452.467 13.6968,465.467 15,478.5C 16.7862,481.736 18.2862,485.07 19.5,488.5C 19.427,490.027 20.0937,491.027 21.5,491.5C 23.8208,494.796 26.1542,498.129 28.5,501.5C 28.427,503.027 29.0937,504.027 30.5,504.5C 52.9656,527.567 80.2989,541.4 112.5,546C 146.857,551.997 181.191,551.997 215.5,546C 219.855,544.154 224.188,542.321 228.5,540.5C 230.027,540.573 231.027,539.906 231.5,538.5C 232.945,536.937 234.611,535.604 236.5,534.5C 239.5,533.5 241.5,531.5 242.5,528.5C 243.5,526.833 244.833,525.5 246.5,524.5C 247.906,524.027 248.573,523.027 248.5,521.5C 248.932,520.29 249.599,519.29 250.5,518.5C 251.906,518.027 252.573,517.027 252.5,515.5C 255.755,506.906 258.921,498.24 262,489.5C 262.377,488.058 263.21,487.058 264.5,486.5C 266.027,486.573 267.027,485.906 267.5,484.5C 270.982,482.783 272.982,483.949 273.5,488C 258.1,546.906 220.1,578.74 159.5,583.5C 152.5,583.5 145.5,583.5 138.5,583.5C 112.581,581.86 88.5809,574.194 66.5,560.5C 66.0269,559.094 65.0269,558.427 63.5,558.5C 63.0269,557.094 62.0269,556.427 60.5,556.5C 60.0269,555.094 59.0269,554.427 57.5,554.5C 56.8333,554.5 56.5,554.167 56.5,553.5C 56.0269,552.094 55.0269,551.427 53.5,551.5C 32.5306,533.24 16.6972,511.24 6,485.5C 3.01257,476.555 0.845905,467.555 -0.5,458.5C -0.5,453.5 -0.5,448.5 -0.5,443.5C 3.51835,419.781 11.5183,397.448 23.5,376.5C 24.9063,376.027 25.573,375.027 25.5,373.5C 26.3403,371.147 27.6736,369.147 29.5,367.5C 30.9063,367.027 31.573,366.027 31.5,364.5C 31.5,363.833 31.8333,363.5 32.5,363.5C 34.2624,362.738 35.2624,361.404 35.5,359.5C 52.7544,340.241 74.4211,332.074 100.5,335C 103.583,334.214 105.749,332.381 107,329.5C 108.102,325.584 108.769,321.584 109,317.5C 110.191,294.588 111.691,271.754 113.5,249C 111.405,243.488 108.072,238.821 103.5,235C 83.3833,234.722 63.3833,236.222 43.5,239.5C 42.1667,239.167 40.8333,238.833 39.5,238.5C 37.9663,234.303 36.9663,229.969 36.5,225.5C 38.4048,213.284 41.2382,201.284 45,189.5C 47.4201,182.034 52.5868,178.7 60.5,179.5C 71.8813,180.91 83.2146,182.577 94.5,184.5C 99.1886,184.862 103.522,183.862 107.5,181.5C 110.167,180.833 111.833,179.167 112.5,176.5C 114.069,172.215 114.736,167.715 114.5,163C 113.845,142.113 112.679,121.28 111,100.5C 108.96,98.6298 107.127,96.6298 105.5,94.5C 105.027,93.0937 104.027,92.427 102.5,92.5C 90.8764,94.2081 79.2098,95.5415 67.5,96.5C 63.9581,96.8128 60.6248,96.4794 57.5,95.5C 57.5,94.8333 57.8333,94.5 58.5,94.5C 59.8333,93.8333 60.8333,92.8333 61.5,91.5C 63.2214,89.3057 65.5547,88.139 68.5,88C 119.379,91.1129 166.712,79.7795 210.5,54C 217.528,49.4894 224.528,44.9894 231.5,40.5C 233.027,40.573 234.027,39.9063 234.5,38.5C 243.475,31.1967 252.475,23.8634 261.5,16.5C 263.749,15.9202 265.415,14.5869 266.5,12.5C 268.833,9.5 271.5,6.83333 274.5,4.5C 276.754,3.58489 278.754,2.25156 280.5,0.5 Z M 228.5,74.5 C 228.973,75.9063 229.973,76.573 231.5,76.5C 231.833,77.5 232.5,78.1667 233.5,78.5C 233.973,79.9063 234.973,80.573 236.5,80.5C 236.833,81.5 237.5,82.1667 238.5,82.5C 238.973,83.9063 239.973,84.573 241.5,84.5C 241.5,85.1667 241.833,85.5 242.5,85.5C 243.262,87.2624 244.596,88.2624 246.5,88.5C 251.358,93.3653 255.025,99.032 257.5,105.5C 255.225,120.406 254.225,135.406 254.5,150.5C 256.154,183.484 256.654,216.484 256,249.5C 254.306,261.963 253.139,274.463 252.5,287C 254.484,308.623 253.65,330.123 250,351.5C 248.05,358.726 245.55,365.726 242.5,372.5C 241.094,372.973 240.427,373.973 240.5,375.5C 239.094,375.973 238.427,376.973 238.5,378.5C 237.167,379.167 236.167,380.167 235.5,381.5C 233.5,382.833 231.833,384.5 230.5,386.5C 218.008,392.976 205.341,393.142 192.5,387C 188.5,385 184.5,383 180.5,381C 166.775,370.943 152.775,361.276 138.5,352C 132.667,348.945 126.667,346.278 120.5,344C 116.673,340.692 115.506,336.526 117,331.5C 122.769,320.398 131.602,312.898 143.5,309C 163.265,304.309 182.932,304.809 202.5,310.5C 203.333,309.5 204.167,308.5 205,307.5C 202.856,279.732 201.689,251.898 201.5,224C 202.62,174.499 203.787,124.999 205,75.5C 209.12,68.6839 214.953,66.8505 222.5,70C 224.66,71.332 226.66,72.832 228.5,74.5 Z"/></g>
<g><path style="opacity:1" fill="#5a5a5a" d="M 278.5,-0.5 C 279.167,-0.5 279.833,-0.5 280.5,-0.5C 280.5,-0.166667 280.5,0.166667 280.5,0.5C 278.754,2.25156 276.754,3.58489 274.5,4.5C 275.833,2.83333 277.167,1.16667 278.5,-0.5 Z"/></g>
<g><path style="opacity:1" fill="#8d8d8d" d="M 280.5,0.5 C 281.906,0.973056 282.573,1.97306 282.5,3.5C 281.094,3.02694 280.427,2.02694 280.5,0.5 Z"/></g>
<g><path style="opacity:1" fill="#080808" d="M 1544.5,41.5 C 1544.74,43.4044 1545.74,44.7377 1547.5,45.5C 1556.03,56.5904 1560.53,69.2571 1561,83.5C 1562.64,118.828 1562.64,154.161 1561,189.5C 1560.33,234.5 1560.33,279.5 1561,324.5C 1561.52,344.061 1563.02,363.395 1565.5,382.5C 1565.5,382.833 1565.5,383.167 1565.5,383.5C 1562.34,384.863 1559,385.697 1555.5,386C 1532.46,384.396 1510.46,388.396 1489.5,398C 1474.17,405.667 1458.83,413.333 1443.5,421C 1434.96,429.869 1426.8,439.036 1419,448.5C 1414.54,456.579 1412.21,465.245 1412,474.5C 1408.52,477.021 1405.02,476.855 1401.5,474C 1396,467.663 1390.33,461.496 1384.5,455.5C 1384.03,454.094 1383.03,453.427 1381.5,453.5C 1377.85,451.183 1374.52,448.516 1371.5,445.5C 1371.03,444.094 1370.03,443.427 1368.5,443.5C 1368.03,442.094 1367.03,441.427 1365.5,441.5C 1364.51,441.672 1363.84,441.338 1363.5,440.5C 1363.03,439.094 1362.03,438.427 1360.5,438.5C 1330.03,422.691 1298.03,418.524 1264.5,426C 1229.49,441.698 1219.65,467.198 1235,502.5C 1237.18,506.86 1239.35,511.193 1241.5,515.5C 1241.43,517.027 1242.09,518.027 1243.5,518.5C 1247.77,523.267 1252.77,527.1 1258.5,530C 1284.49,540.332 1311.49,545.499 1339.5,545.5C 1373.23,543.943 1406.56,539.443 1439.5,532C 1450.01,527.986 1459.01,521.819 1466.5,513.5C 1467.91,513.027 1468.57,512.027 1468.5,510.5C 1476.34,498.643 1481.01,485.643 1482.5,471.5C 1484.75,470.92 1486.42,469.587 1487.5,467.5C 1488.5,467.586 1489.33,467.252 1490,466.5C 1490.5,470.821 1490.67,475.154 1490.5,479.5C 1484.74,511.423 1468.08,535.923 1440.5,553C 1418.97,565.27 1395.97,573.27 1371.5,577C 1335.07,580.888 1301.07,573.721 1269.5,555.5C 1269.03,554.094 1268.03,553.427 1266.5,553.5C 1265.51,553.672 1264.84,553.338 1264.5,552.5C 1264.03,551.094 1263.03,550.427 1261.5,550.5C 1261.03,549.094 1260.03,548.427 1258.5,548.5C 1258.03,547.094 1257.03,546.427 1255.5,546.5C 1254.83,546.5 1254.5,546.167 1254.5,545.5C 1254.03,544.094 1253.03,543.427 1251.5,543.5C 1250.5,543.167 1249.83,542.5 1249.5,541.5C 1248.42,539.413 1246.75,538.08 1244.5,537.5C 1225.61,518.027 1216.61,494.527 1217.5,467C 1217.67,437.647 1227,411.814 1245.5,389.5C 1246.91,389.027 1247.57,388.027 1247.5,386.5C 1248.17,385.167 1249.17,384.167 1250.5,383.5C 1253.57,381.431 1255.91,378.764 1257.5,375.5C 1259.03,375.573 1260.03,374.906 1260.5,373.5C 1262.88,370.119 1265.88,367.453 1269.5,365.5C 1271.03,365.573 1272.03,364.906 1272.5,363.5C 1274.15,361.674 1276.15,360.34 1278.5,359.5C 1280.03,359.573 1281.03,358.906 1281.5,357.5C 1281.84,356.662 1282.51,356.328 1283.5,356.5C 1286.08,355.952 1287.08,354.285 1286.5,351.5C 1291.43,325.009 1292.59,298.342 1290,271.5C 1288.96,270.627 1288.12,269.627 1287.5,268.5C 1287.5,266.5 1286.5,265.5 1284.5,265.5C 1284.03,264.094 1283.03,263.427 1281.5,263.5C 1275.3,261.651 1268.96,261.151 1262.5,262C 1252.11,264.513 1241.78,267.18 1231.5,270C 1224.05,277.985 1219.89,287.485 1219,298.5C 1218.22,301.184 1216.89,303.517 1215,305.5C 1208.52,283.749 1209.86,262.416 1219,241.5C 1221.36,236.76 1224.19,232.426 1227.5,228.5C 1229.26,227.738 1230.26,226.404 1230.5,224.5C 1236.42,219.211 1243.42,216.044 1251.5,215C 1260.25,214.134 1268.92,214.634 1277.5,216.5C 1279.51,216.16 1281.51,215.827 1283.5,215.5C 1285.03,215.573 1286.03,214.906 1286.5,213.5C 1288.49,211.535 1289.99,209.202 1291,206.5C 1291.85,195.456 1291.52,184.456 1290,173.5C 1288.79,167.309 1285.63,162.475 1280.5,159C 1279,158.833 1277.5,158.667 1276,158.5C 1267.39,159.982 1258.89,161.982 1250.5,164.5C 1240.59,164.215 1239.59,161.881 1247.5,157.5C 1249.03,157.573 1250.03,156.906 1250.5,155.5C 1280.59,153.554 1310.26,148.388 1339.5,140C 1356.45,134.36 1372.11,126.36 1386.5,116C 1387.6,115.23 1387.6,114.397 1386.5,113.5C 1386.03,112.094 1385.03,111.427 1383.5,111.5C 1377.92,108.251 1371.92,106.084 1365.5,105C 1337.24,101.137 1309.24,102.803 1281.5,110C 1266.12,112.637 1252.78,108.804 1241.5,98.5C 1240.74,96.7376 1239.4,95.7376 1237.5,95.5C 1232.76,91.2551 1228.93,86.2551 1226,80.5C 1217.24,60.7229 1212.07,40.0562 1210.5,18.5C 1209.42,12.9976 1211.09,8.66422 1215.5,5.5C 1217.47,6.30521 1218.97,7.63854 1220,9.5C 1220.87,14.8868 1221.87,20.2202 1223,25.5C 1227,28.9162 1231.5,31.4162 1236.5,33C 1264.78,31.2288 1293.11,29.8955 1321.5,29C 1357.15,25.8017 1392.82,22.8017 1428.5,20C 1462.66,17.6522 1496.33,20.6522 1529.5,29C 1535.31,32.2322 1540.31,36.3989 1544.5,41.5 Z M 1425.5,381.5 C 1425.57,379.973 1424.91,378.973 1423.5,378.5C 1421,374.803 1420,370.636 1420.5,366C 1423.89,279.843 1424.39,193.677 1422,107.5C 1428.53,100.766 1436.53,97.7658 1446,98.5C 1462.36,97.5011 1472.69,104.834 1477,120.5C 1478.91,127.364 1479.74,134.364 1479.5,141.5C 1478.46,157.69 1477.12,173.857 1475.5,190C 1478.49,259.526 1478.16,329.026 1474.5,398.5C 1469.43,401.8 1464.1,402.3 1458.5,400C 1451.15,396.663 1444.48,392.329 1438.5,387C 1434.37,384.597 1430.03,382.763 1425.5,381.5 Z M 1410.5,192.5 C 1409.83,251.402 1409.16,310.402 1408.5,369.5C 1404.2,370.463 1399.87,370.629 1395.5,370C 1386.17,368 1376.83,366 1367.5,364C 1349.84,363.071 1332.18,362.404 1314.5,362C 1308.78,361.722 1303.28,360.555 1298,358.5C 1296.58,355.97 1296.25,353.303 1297,350.5C 1317.08,330.969 1341.24,321.969 1369.5,323.5C 1370.27,324.147 1371.27,324.48 1372.5,324.5C 1374.03,324.36 1375.03,323.693 1375.5,322.5C 1376.12,322.389 1376.62,322.056 1377,321.5C 1375.87,258.144 1376.71,194.811 1379.5,131.5C 1380.34,130.329 1381.01,128.995 1381.5,127.5C 1390.32,123.176 1398.49,117.843 1406,111.5C 1411.22,113.248 1414.05,116.915 1414.5,122.5C 1413.33,125.5 1412.17,128.5 1411,131.5C 1410.5,151.831 1410.33,172.164 1410.5,192.5 Z"/></g>
<g><path style="opacity:1" fill="#0a0a0a" d="M 827.5,53.5 C 827.427,55.0269 828.094,56.0269 829.5,56.5C 830.5,56.8333 831.167,57.5 831.5,58.5C 831.427,60.0269 832.094,61.0269 833.5,61.5C 838.058,66.9266 841.891,72.9266 845,79.5C 846.652,80.3994 848.152,81.3994 849.5,82.5C 850.274,83.1471 851.274,83.4805 852.5,83.5C 854.03,83.3601 855.03,82.6935 855.5,81.5C 858.72,63.9526 862.887,46.6193 868,29.5C 869.459,27.1904 871.292,26.8571 873.5,28.5C 873.427,30.0269 874.094,31.0269 875.5,31.5C 857.177,83.9061 858.343,136.239 879,188.5C 880.211,197.676 882.211,206.676 885,215.5C 889.202,227.771 893.202,240.105 897,252.5C 907.176,292.205 917.51,331.871 928,371.5C 929.711,377.252 932.211,382.586 935.5,387.5C 935.427,389.027 936.094,390.027 937.5,390.5C 941.862,395.189 947.195,398.189 953.5,399.5C 959.142,398.012 963.809,395.012 967.5,390.5C 968.906,390.027 969.573,389.027 969.5,387.5C 969.833,386.5 970.5,385.833 971.5,385.5C 972.906,385.027 973.573,384.027 973.5,382.5C 975.993,379.328 979.16,376.995 983,375.5C 987.858,376.612 989.525,379.279 988,383.5C 973,399.833 958,416.167 943,432.5C 932.614,445.603 925.114,460.27 920.5,476.5C 919.562,477.553 918.395,478.22 917,478.5C 913.637,476.934 910.137,475.768 906.5,475C 902.332,471.664 898.332,468.164 894.5,464.5C 894.027,463.094 893.027,462.427 891.5,462.5C 891.027,461.094 890.027,460.427 888.5,460.5C 883.991,458.081 879.658,455.414 875.5,452.5C 875.027,451.094 874.027,450.427 872.5,450.5C 872.027,449.094 871.027,448.427 869.5,448.5C 863.376,444.617 858.876,439.283 856,432.5C 850.216,402.032 842.55,372.032 833,342.5C 830.949,334.58 829.283,326.58 828,318.5C 822.552,308.515 814.052,303.182 802.5,302.5C 781.506,303.727 760.506,304.894 739.5,306C 728.688,307.08 718.021,308.913 707.5,311.5C 706.167,311.5 705.5,312.167 705.5,313.5C 702.052,328.015 697.885,342.348 693,356.5C 692.317,360.84 694.15,363.673 698.5,365C 708.465,366.16 718.132,368.493 727.5,372C 742.697,379.182 757.531,387.015 772,395.5C 772.383,394.944 772.883,394.611 773.5,394.5C 774.906,394.027 775.573,393.027 775.5,391.5C 775.5,390.833 775.833,390.5 776.5,390.5C 777.906,390.027 778.573,389.027 778.5,387.5C 779.026,385.77 780.026,384.436 781.5,383.5C 782.906,383.027 783.573,382.027 783.5,380.5C 788.001,371.325 795.334,366.658 805.5,366.5C 805.662,368.527 805.495,370.527 805,372.5C 788.304,388.862 771.971,405.528 756,422.5C 742.524,437.783 733.524,455.45 729,475.5C 728.292,476.381 727.458,477.047 726.5,477.5C 724.833,476.833 723.167,476.167 721.5,475.5C 711.495,465.494 701.828,455.161 692.5,444.5C 691.738,442.738 690.404,441.738 688.5,441.5C 687.5,441.167 686.833,440.5 686.5,439.5C 686.027,438.094 685.027,437.427 683.5,437.5C 683.027,436.094 682.027,435.427 680.5,435.5C 662.804,424.297 643.804,421.463 623.5,427C 604.356,437.941 595.356,454.608 596.5,477C 596.195,491.247 600.195,504.08 608.5,515.5C 608.738,517.404 609.738,518.738 611.5,519.5C 632.668,540.154 658.168,550.154 688,549.5C 715.625,549.469 741.459,542.635 765.5,529C 769.668,525.664 773.668,522.164 777.5,518.5C 778.906,518.027 779.573,517.027 779.5,515.5C 788.008,502.462 793.175,488.129 795,472.5C 796.113,471.695 797.279,471.028 798.5,470.5C 799.833,470.5 801.167,470.5 802.5,470.5C 803.222,470.918 803.722,471.584 804,472.5C 803.818,487.229 800.485,501.229 794,514.5C 786.428,528.478 777.262,541.311 766.5,553C 752.9,565.21 736.9,572.21 718.5,574C 691.443,578.578 665.777,574.578 641.5,562C 639.253,560.723 637.253,559.223 635.5,557.5C 635.027,556.094 634.027,555.427 632.5,555.5C 631.833,555.5 631.5,555.167 631.5,554.5C 631.027,553.094 630.027,552.427 628.5,552.5C 627.167,551.833 626.167,550.833 625.5,549.5C 624.415,547.413 622.749,546.08 620.5,545.5C 619.5,545.167 618.833,544.5 618.5,543.5C 618.5,541.5 617.5,540.5 615.5,540.5C 578.549,501.068 574.549,458.402 603.5,412.5C 604.906,412.027 605.573,411.027 605.5,409.5C 607.4,405.268 610.067,401.601 613.5,398.5C 615.262,397.738 616.262,396.404 616.5,394.5C 619.833,390.5 623.5,386.833 627.5,383.5C 629.404,383.262 630.738,382.262 631.5,380.5C 632.579,378.457 634.246,377.124 636.5,376.5C 638.027,376.573 639.027,375.906 639.5,374.5C 647.04,367.584 656.04,364.417 666.5,365C 668.641,364.427 670.641,363.594 672.5,362.5C 674.027,362.573 675.027,361.906 675.5,360.5C 676.906,360.027 677.573,359.027 677.5,357.5C 679.87,353.423 681.703,349.09 683,344.5C 697.543,285.328 712.877,226.328 729,167.5C 735.677,145.135 743.344,123.135 752,101.5C 753.009,75.1939 743.843,53.1939 724.5,35.5C 724.027,34.0937 723.027,33.427 721.5,33.5C 720.833,33.5 720.5,33.1667 720.5,32.5C 720.027,31.0937 719.027,30.427 717.5,30.5C 683.67,14.565 655.17,21.2316 632,50.5C 621.12,67.7336 619.62,85.7336 627.5,104.5C 627.738,106.404 628.738,107.738 630.5,108.5C 638.145,115.311 646.478,121.144 655.5,126C 670.062,129.813 684.395,129.313 698.5,124.5C 700.027,124.573 701.027,123.906 701.5,122.5C 704.167,119.167 707.167,116.167 710.5,113.5C 711.906,113.027 712.573,112.027 712.5,110.5C 714.782,104.111 718.448,98.6115 723.5,94C 724.449,93.3828 725.282,93.5494 726,94.5C 726.986,96.7778 727.82,99.1111 728.5,101.5C 725.4,110.781 721.567,119.781 717,128.5C 698.782,151.899 675.949,157.732 648.5,146C 644.589,144.556 641.256,142.389 638.5,139.5C 638.027,138.094 637.027,137.427 635.5,137.5C 634.5,137.167 633.833,136.5 633.5,135.5C 632.089,133.086 630.089,131.419 627.5,130.5C 617.781,120.203 612.614,107.87 612,93.5C 608.85,70.1679 616.017,50.8346 633.5,35.5C 635.749,34.9202 637.415,33.5869 638.5,31.5C 650.516,21.8282 664.182,15.3282 679.5,12C 725.595,1.12584 768.262,8.79251 807.5,35C 814.964,40.2974 821.631,46.464 827.5,53.5 Z M 763.5,109.5 C 764.172,110.267 765.005,110.934 766,111.5C 780.755,157.269 793.588,203.602 804.5,250.5C 804.412,255.184 802.412,258.684 798.5,261C 773.762,262.044 749.095,261.211 724.5,258.5C 723.791,257.596 722.791,257.263 721.5,257.5C 721.5,256.167 721.5,254.833 721.5,253.5C 725.374,231.334 730.207,209.334 736,187.5C 743.406,161.785 750.906,136.119 758.5,110.5C 760.042,109.699 761.708,109.366 763.5,109.5 Z"/></g>
<g><path style="opacity:1" fill="#717171" d="M 266.5,12.5 C 265.415,14.5869 263.749,15.9202 261.5,16.5C 262.585,14.4131 264.251,13.0798 266.5,12.5 Z"/></g>
<g><path style="opacity:1" fill="#959595" d="M 361.5,21.5 C 362.919,20.5489 364.585,20.2155 366.5,20.5C 366.813,24.0419 366.479,27.3752 365.5,30.5C 365.5,27.5 365.5,24.5 365.5,21.5C 364.167,21.5 362.833,21.5 361.5,21.5 Z"/></g>
<g><path style="opacity:1" fill="#848484" d="M 873.5,28.5 C 874.906,28.9731 875.573,29.9731 875.5,31.5C 874.094,31.0269 873.427,30.0269 873.5,28.5 Z"/></g>
<g><path style="opacity:1" fill="#787878" d="M 717.5,30.5 C 719.027,30.427 720.027,31.0937 720.5,32.5C 718.973,32.573 717.973,31.9063 717.5,30.5 Z"/></g>
<g><path style="opacity:1" fill="#5f5f5f" d="M 638.5,31.5 C 637.415,33.5869 635.749,34.9202 633.5,35.5C 634.585,33.4131 636.251,32.0798 638.5,31.5 Z"/></g>
<g><path style="opacity:1" fill="#717171" d="M 721.5,33.5 C 723.027,33.427 724.027,34.0937 724.5,35.5C 722.973,35.573 721.973,34.9063 721.5,33.5 Z"/></g>
<g><path style="opacity:1" fill="#727272" d="M 234.5,38.5 C 234.027,39.9063 233.027,40.573 231.5,40.5C 231.973,39.0937 232.973,38.427 234.5,38.5 Z"/></g>
<g><path style="opacity:1" fill="#737373" d="M 1544.5,41.5 C 1546.26,42.2623 1547.26,43.5956 1547.5,45.5C 1545.74,44.7377 1544.74,43.4044 1544.5,41.5 Z"/></g>
<g><path style="opacity:1" fill="#9a9a9a" d="M 301.5,42.5 C 303.833,44.1667 305.833,46.1667 307.5,48.5C 304.5,47.5 302.5,45.5 301.5,42.5 Z"/></g>
<g><path style="opacity:1" fill="#808080" d="M 351.5,48.5 C 351.573,50.0269 350.906,51.0269 349.5,51.5C 349.427,49.9731 350.094,48.9731 351.5,48.5 Z"/></g>
<g><path style="opacity:1" fill="#8d8d8d" d="M 827.5,53.5 C 828.906,53.9731 829.573,54.9731 829.5,56.5C 828.094,56.0269 827.427,55.0269 827.5,53.5 Z"/></g>
<g><path style="opacity:1" fill="#8d8d8d" d="M 831.5,58.5 C 832.906,58.9731 833.573,59.9731 833.5,61.5C 832.094,61.0269 831.427,60.0269 831.5,58.5 Z"/></g>
<g><path style="opacity:1" fill="#7a7a7a" d="M 228.5,74.5 C 230.027,74.427 231.027,75.0937 231.5,76.5C 229.973,76.573 228.973,75.9063 228.5,74.5 Z"/></g>
<g><path style="opacity:1" fill="#787878" d="M 233.5,78.5 C 235.027,78.427 236.027,79.0937 236.5,80.5C 234.973,80.573 233.973,79.9063 233.5,78.5 Z"/></g>
<g><path style="opacity:1" fill="#a9a9a9" d="M 855.5,81.5 C 855.03,82.6935 854.03,83.3601 852.5,83.5C 851.274,83.4805 850.274,83.1471 849.5,82.5C 851.621,82.6747 853.621,82.3414 855.5,81.5 Z"/></g>
<g><path style="opacity:1" fill="#828282" d="M 238.5,82.5 C 240.027,82.427 241.027,83.0937 241.5,84.5C 239.973,84.573 238.973,83.9063 238.5,82.5 Z"/></g>
<g><path style="opacity:1" fill="#767676" d="M 242.5,85.5 C 244.404,85.7376 245.738,86.7376 246.5,88.5C 244.596,88.2624 243.262,87.2624 242.5,85.5 Z"/></g>
<g><path style="opacity:1" fill="#848484" d="M 61.5,91.5 C 60.8333,92.8333 59.8333,93.8333 58.5,94.5C 58.5,92.5 59.5,91.5 61.5,91.5 Z"/></g>
<g><path style="opacity:1" fill="#767676" d="M 102.5,92.5 C 104.027,92.427 105.027,93.0937 105.5,94.5C 103.973,94.573 102.973,93.9063 102.5,92.5 Z"/></g>
<g><path style="opacity:1" fill="#838383" d="M 1237.5,95.5 C 1239.4,95.7376 1240.74,96.7376 1241.5,98.5C 1239.6,98.2624 1238.26,97.2624 1237.5,95.5 Z"/></g>
<g><path style="opacity:1" fill="#cdcdcd" d="M 57.5,95.5 C 60.6248,96.4794 63.9581,96.8128 67.5,96.5C 63.9813,97.8077 60.3147,97.8077 56.5,96.5C 56.6236,95.8933 56.9569,95.56 57.5,95.5 Z"/></g>
<g><path style="opacity:1" fill="#7e7e7e" d="M 627.5,104.5 C 629.262,105.262 630.262,106.596 630.5,108.5C 628.738,107.738 627.738,106.404 627.5,104.5 Z"/></g>
<g><path style="opacity:1" fill="#7c7c7c" d="M 763.5,109.5 C 761.708,109.366 760.042,109.699 758.5,110.5C 758.791,109.351 759.624,108.684 761,108.5C 762.07,108.528 762.903,108.861 763.5,109.5 Z"/></g>
<g><path style="opacity:1" fill="#848484" d="M 1383.5,111.5 C 1385.03,111.427 1386.03,112.094 1386.5,113.5C 1384.97,113.573 1383.97,112.906 1383.5,111.5 Z"/></g>
<g><path style="opacity:1" fill="#767676" d="M 712.5,110.5 C 712.573,112.027 711.906,113.027 710.5,113.5C 710.427,111.973 711.094,110.973 712.5,110.5 Z"/></g>
<g><path style="opacity:1" fill="#7b7b7b" d="M 701.5,122.5 C 701.027,123.906 700.027,124.573 698.5,124.5C 698.973,123.094 699.973,122.427 701.5,122.5 Z"/></g>
<g><path style="opacity:1" fill="#979797" d="M 627.5,130.5 C 630.089,131.419 632.089,133.086 633.5,135.5C 630.911,134.581 628.911,132.914 627.5,130.5 Z"/></g>
<g><path style="opacity:0.4" fill="#dcdcdc" d="M 1381.5,127.5 C 1381.01,128.995 1380.34,130.329 1379.5,131.5C 1379.16,129.517 1379.82,128.183 1381.5,127.5 Z"/></g>
<g><path style="opacity:1" fill="#7e7e7e" d="M 635.5,137.5 C 637.027,137.427 638.027,138.094 638.5,139.5C 636.973,139.573 635.973,138.906 635.5,137.5 Z"/></g>
<g><path style="opacity:1" fill="#747474" d="M 1250.5,155.5 C 1250.03,156.906 1249.03,157.573 1247.5,157.5C 1247.97,156.094 1248.97,155.427 1250.5,155.5 Z"/></g>
<g><path style="opacity:1" fill="#848484" d="M 112.5,176.5 C 111.833,179.167 110.167,180.833 107.5,181.5C 108.833,179.5 110.5,177.833 112.5,176.5 Z"/></g>
<g><path style="opacity:1" fill="#747474" d="M 1286.5,213.5 C 1286.03,214.906 1285.03,215.573 1283.5,215.5C 1283.97,214.094 1284.97,213.427 1286.5,213.5 Z"/></g>
<g><path style="opacity:1" fill="#6e6e6e" d="M 1230.5,224.5 C 1230.26,226.404 1229.26,227.738 1227.5,228.5C 1227.74,226.596 1228.74,225.262 1230.5,224.5 Z"/></g>
<g><path style="opacity:1" fill="#bcbcbc" d="M 721.5,253.5 C 721.5,254.833 721.5,256.167 721.5,257.5C 722.791,257.263 723.791,257.596 724.5,258.5C 723.167,258.5 721.833,258.5 720.5,258.5C 720.216,256.585 720.549,254.919 721.5,253.5 Z"/></g>
<g><path style="opacity:1" fill="#929292" d="M 1281.5,263.5 C 1283.03,263.427 1284.03,264.094 1284.5,265.5C 1282.97,265.573 1281.97,264.906 1281.5,263.5 Z"/></g>
<g><path style="opacity:1" fill="#747474" d="M 1284.5,265.5 C 1286.5,265.5 1287.5,266.5 1287.5,268.5C 1286.17,267.833 1285.17,266.833 1284.5,265.5 Z"/></g>
<g><path style="opacity:1" fill="#c8c8c8" d="M 707.5,311.5 C 707.167,312.5 706.5,313.167 705.5,313.5C 705.5,312.167 706.167,311.5 707.5,311.5 Z"/></g>
<g><path style="opacity:1" fill="#9e9e9e" d="M 1410.5,192.5 C 1411.16,251.843 1410.5,310.843 1408.5,369.5C 1409.16,310.402 1409.83,251.402 1410.5,192.5 Z"/></g>
<g><path style="opacity:1" fill="#d1d1d1" d="M 1375.5,322.5 C 1375.03,323.693 1374.03,324.36 1372.5,324.5C 1371.27,324.48 1370.27,324.147 1369.5,323.5C 1371.62,323.675 1373.62,323.341 1375.5,322.5 Z"/></g>
<g><path style="opacity:1" fill="#838383" d="M 1286.5,351.5 C 1287.08,354.285 1286.08,355.952 1283.5,356.5C 1284.69,354.887 1285.69,353.22 1286.5,351.5 Z"/></g>
<g><path style="opacity:1" fill="#919191" d="M 677.5,357.5 C 677.573,359.027 676.906,360.027 675.5,360.5C 675.427,358.973 676.094,357.973 677.5,357.5 Z"/></g>
<g><path style="opacity:1" fill="#717171" d="M 1281.5,357.5 C 1281.03,358.906 1280.03,359.573 1278.5,359.5C 1278.97,358.094 1279.97,357.427 1281.5,357.5 Z"/></g>
<g><path style="opacity:1" fill="#7a7a7a" d="M 35.5,359.5 C 35.2624,361.404 34.2624,362.738 32.5,363.5C 32.7376,361.596 33.7376,360.262 35.5,359.5 Z"/></g>
<g><path style="opacity:1" fill="#808080" d="M 675.5,360.5 C 675.027,361.906 674.027,362.573 672.5,362.5C 672.973,361.094 673.973,360.427 675.5,360.5 Z"/></g>
<g><path style="opacity:1" fill="#7d7d7d" d="M 1272.5,363.5 C 1272.03,364.906 1271.03,365.573 1269.5,365.5C 1269.97,364.094 1270.97,363.427 1272.5,363.5 Z"/></g>
<g><path style="opacity:1" fill="#858585" d="M 31.5,364.5 C 31.573,366.027 30.9063,367.027 29.5,367.5C 29.427,365.973 30.0937,364.973 31.5,364.5 Z"/></g>
<g><path style="opacity:1" fill="#7f7f7f" d="M 242.5,372.5 C 242.573,374.027 241.906,375.027 240.5,375.5C 240.427,373.973 241.094,372.973 242.5,372.5 Z"/></g>
<g><path style="opacity:1" fill="#7b7b7b" d="M 1260.5,373.5 C 1260.03,374.906 1259.03,375.573 1257.5,375.5C 1257.97,374.094 1258.97,373.427 1260.5,373.5 Z"/></g>
<g><path style="opacity:1" fill="#939393" d="M 25.5,373.5 C 25.573,375.027 24.9063,376.027 23.5,376.5C 23.427,374.973 24.0937,373.973 25.5,373.5 Z"/></g>
<g><path style="opacity:1" fill="#7a7a7a" d="M 639.5,374.5 C 639.027,375.906 638.027,376.573 636.5,376.5C 636.973,375.094 637.973,374.427 639.5,374.5 Z"/></g>
<g><path style="opacity:1" fill="#7b7b7b" d="M 240.5,375.5 C 240.573,377.027 239.906,378.027 238.5,378.5C 238.427,376.973 239.094,375.973 240.5,375.5 Z"/></g>
<g><path style="opacity:1" fill="#7f7f7f" d="M 1257.5,375.5 C 1255.91,378.764 1253.57,381.431 1250.5,383.5C 1252.09,380.236 1254.43,377.569 1257.5,375.5 Z"/></g>
<g><path style="opacity:1" fill="#929292" d="M 1423.5,378.5 C 1424.91,378.973 1425.57,379.973 1425.5,381.5C 1424.09,381.027 1423.43,380.027 1423.5,378.5 Z"/></g>
<g><path style="opacity:1" fill="#7c7c7c" d="M 631.5,380.5 C 630.738,382.262 629.404,383.262 627.5,383.5C 628.262,381.738 629.596,380.738 631.5,380.5 Z"/></g>
<g><path style="opacity:1" fill="#7e7e7e" d="M 783.5,380.5 C 783.573,382.027 782.906,383.027 781.5,383.5C 781.427,381.973 782.094,380.973 783.5,380.5 Z"/></g>
<g><path style="opacity:1" fill="#8f8f8f" d="M 973.5,382.5 C 973.573,384.027 972.906,385.027 971.5,385.5C 971.427,383.973 972.094,382.973 973.5,382.5 Z"/></g>
<g><path style="opacity:1" fill="#616161" d="M 235.5,381.5 C 234.833,384.167 233.167,385.833 230.5,386.5C 231.833,384.5 233.5,382.833 235.5,381.5 Z"/></g>
<g><path style="opacity:1" fill="#8a8a8a" d="M 935.5,387.5 C 936.906,387.973 937.573,388.973 937.5,390.5C 936.094,390.027 935.427,389.027 935.5,387.5 Z"/></g>
<g><path style="opacity:1" fill="#757575" d="M 969.5,387.5 C 969.573,389.027 968.906,390.027 967.5,390.5C 967.427,388.973 968.094,387.973 969.5,387.5 Z"/></g>
<g><path style="opacity:1" fill="#737373" d="M 1247.5,386.5 C 1247.57,388.027 1246.91,389.027 1245.5,389.5C 1245.43,387.973 1246.09,386.973 1247.5,386.5 Z"/></g>
<g><path style="opacity:1" fill="#767676" d="M 778.5,387.5 C 778.573,389.027 777.906,390.027 776.5,390.5C 776.427,388.973 777.094,387.973 778.5,387.5 Z"/></g>
<g><path style="opacity:1" fill="#808080" d="M 775.5,391.5 C 775.573,393.027 774.906,394.027 773.5,394.5C 773.427,392.973 774.094,391.973 775.5,391.5 Z"/></g>
<g><path style="opacity:1" fill="#757575" d="M 616.5,394.5 C 616.262,396.404 615.262,397.738 613.5,398.5C 613.738,396.596 614.738,395.262 616.5,394.5 Z"/></g>
<g><path style="opacity:1" fill="#808080" d="M 605.5,409.5 C 605.573,411.027 604.906,412.027 603.5,412.5C 603.427,410.973 604.094,409.973 605.5,409.5 Z"/></g>
<g><path style="opacity:1" fill="#8f8f8f" d="M 680.5,435.5 C 682.027,435.427 683.027,436.094 683.5,437.5C 681.973,437.573 680.973,436.906 680.5,435.5 Z"/></g>
<g><path style="opacity:1" fill="#8d8d8d" d="M 105.5,437.5 C 107.027,437.427 108.027,438.094 108.5,439.5C 106.973,439.573 105.973,438.906 105.5,437.5 Z"/></g>
<g><path style="opacity:1" fill="#787878" d="M 683.5,437.5 C 685.027,437.427 686.027,438.094 686.5,439.5C 684.973,439.573 683.973,438.906 683.5,437.5 Z"/></g>
<g><path style="opacity:1" fill="#929292" d="M 1360.5,438.5 C 1362.03,438.427 1363.03,439.094 1363.5,440.5C 1361.97,440.573 1360.97,439.906 1360.5,438.5 Z"/></g>
<g><path style="opacity:1" fill="#7e7e7e" d="M 688.5,441.5 C 690.404,441.738 691.738,442.738 692.5,444.5C 690.596,444.262 689.262,443.262 688.5,441.5 Z"/></g>
<g><path style="opacity:1" fill="#828282" d="M 1365.5,441.5 C 1367.03,441.427 1368.03,442.094 1368.5,443.5C 1366.97,443.573 1365.97,442.906 1365.5,441.5 Z"/></g>
<g><path style="opacity:1" fill="#838383" d="M 113.5,442.5 C 115.027,442.427 116.027,443.094 116.5,444.5C 114.973,444.573 113.973,443.906 113.5,442.5 Z"/></g>
<g><path style="opacity:1" fill="#818181" d="M 1368.5,443.5 C 1370.03,443.427 1371.03,444.094 1371.5,445.5C 1369.97,445.573 1368.97,444.906 1368.5,443.5 Z"/></g>
<g><path style="opacity:1" fill="#898989" d="M 869.5,448.5 C 871.027,448.427 872.027,449.094 872.5,450.5C 870.973,450.573 869.973,449.906 869.5,448.5 Z"/></g>
<g><path style="opacity:1" fill="#848484" d="M 872.5,450.5 C 874.027,450.427 875.027,451.094 875.5,452.5C 873.973,452.573 872.973,451.906 872.5,450.5 Z"/></g>
<g><path style="opacity:1" fill="#787878" d="M 1381.5,453.5 C 1383.03,453.427 1384.03,454.094 1384.5,455.5C 1382.97,455.573 1381.97,454.906 1381.5,453.5 Z"/></g>
<g><path style="opacity:1" fill="#888888" d="M 888.5,460.5 C 890.027,460.427 891.027,461.094 891.5,462.5C 889.973,462.573 888.973,461.906 888.5,460.5 Z"/></g>
<g><path style="opacity:1" fill="#838383" d="M 891.5,462.5 C 893.027,462.427 894.027,463.094 894.5,464.5C 892.973,464.573 891.973,463.906 891.5,462.5 Z"/></g>
<g><path style="opacity:1" fill="#767676" d="M 802.5,470.5 C 801.167,470.5 799.833,470.5 798.5,470.5C 800.032,468.219 801.366,468.219 802.5,470.5 Z"/></g>
<g><path style="opacity:1" fill="#737373" d="M 1490.5,479.5 C 1490.67,475.154 1490.5,470.821 1490,466.5C 1489.33,467.252 1488.5,467.586 1487.5,467.5C 1488.29,465.896 1489.62,465.229 1491.5,465.5C 1491.82,470.363 1491.49,475.03 1490.5,479.5 Z"/></g>
<g><path style="opacity:1" fill="#5a5a5a" d="M 1487.5,467.5 C 1486.42,469.587 1484.75,470.92 1482.5,471.5C 1483.58,469.413 1485.25,468.08 1487.5,467.5 Z"/></g>
<g><path style="opacity:1" fill="#8f8f8f" d="M 721.5,475.5 C 723.167,476.167 724.833,476.833 726.5,477.5C 724.257,478.858 722.591,478.192 721.5,475.5 Z"/></g>
<g><path style="opacity:1" fill="#747474" d="M 267.5,484.5 C 267.027,485.906 266.027,486.573 264.5,486.5C 264.973,485.094 265.973,484.427 267.5,484.5 Z"/></g>
<g><path style="opacity:1" fill="#939393" d="M 19.5,488.5 C 20.9063,488.973 21.573,489.973 21.5,491.5C 20.0937,491.027 19.427,490.027 19.5,488.5 Z"/></g>
<g><path style="opacity:1" fill="#777777" d="M 28.5,501.5 C 29.9063,501.973 30.573,502.973 30.5,504.5C 29.0937,504.027 28.427,503.027 28.5,501.5 Z"/></g>
<g><path style="opacity:1" fill="#7a7a7a" d="M 1468.5,510.5 C 1468.57,512.027 1467.91,513.027 1466.5,513.5C 1466.43,511.973 1467.09,510.973 1468.5,510.5 Z"/></g>
<g><path style="opacity:1" fill="#919191" d="M 252.5,515.5 C 252.573,517.027 251.906,518.027 250.5,518.5C 250.427,516.973 251.094,515.973 252.5,515.5 Z"/></g>
<g><path style="opacity:1" fill="#797979" d="M 608.5,515.5 C 610.262,516.262 611.262,517.596 611.5,519.5C 609.738,518.738 608.738,517.404 608.5,515.5 Z"/></g>
<g><path style="opacity:1" fill="#7f7f7f" d="M 779.5,515.5 C 779.573,517.027 778.906,518.027 777.5,518.5C 777.427,516.973 778.094,515.973 779.5,515.5 Z"/></g>
<g><path style="opacity:1" fill="#8d8d8d" d="M 1241.5,515.5 C 1242.91,515.973 1243.57,516.973 1243.5,518.5C 1242.09,518.027 1241.43,517.027 1241.5,515.5 Z"/></g>
<g><path style="opacity:1" fill="#797979" d="M 248.5,521.5 C 248.573,523.027 247.906,524.027 246.5,524.5C 246.427,522.973 247.094,521.973 248.5,521.5 Z"/></g>
<g><path style="opacity:1" fill="#777777" d="M 242.5,528.5 C 241.5,531.5 239.5,533.5 236.5,534.5C 238.167,532.167 240.167,530.167 242.5,528.5 Z"/></g>
<g><path style="opacity:1" fill="#909090" d="M 1244.5,537.5 C 1246.75,538.08 1248.42,539.413 1249.5,541.5C 1247.25,540.92 1245.58,539.587 1244.5,537.5 Z"/></g>
<g><path style="opacity:1" fill="#7a7a7a" d="M 231.5,538.5 C 231.027,539.906 230.027,540.573 228.5,540.5C 228.973,539.094 229.973,538.427 231.5,538.5 Z"/></g>
<g><path style="opacity:1" fill="#999999" d="M 615.5,540.5 C 617.5,540.5 618.5,541.5 618.5,543.5C 617.167,542.833 616.167,541.833 615.5,540.5 Z"/></g>
<g><path style="opacity:1" fill="#767676" d="M 1251.5,543.5 C 1253.03,543.427 1254.03,544.094 1254.5,545.5C 1252.97,545.573 1251.97,544.906 1251.5,543.5 Z"/></g>
<g><path style="opacity:1" fill="#939393" d="M 620.5,545.5 C 622.749,546.08 624.415,547.413 625.5,549.5C 623.251,548.92 621.585,547.587 620.5,545.5 Z"/></g>
<g><path style="opacity:1" fill="#818181" d="M 1255.5,546.5 C 1257.03,546.427 1258.03,547.094 1258.5,548.5C 1256.97,548.573 1255.97,547.906 1255.5,546.5 Z"/></g>
<g><path style="opacity:1" fill="#818181" d="M 1258.5,548.5 C 1260.03,548.427 1261.03,549.094 1261.5,550.5C 1259.97,550.573 1258.97,549.906 1258.5,548.5 Z"/></g>
<g><path style="opacity:1" fill="#939393" d="M 1261.5,550.5 C 1263.03,550.427 1264.03,551.094 1264.5,552.5C 1262.97,552.573 1261.97,551.906 1261.5,550.5 Z"/></g>
<g><path style="opacity:1" fill="#727272" d="M 53.5,551.5 C 55.0269,551.427 56.0269,552.094 56.5,553.5C 54.9731,553.573 53.9731,552.906 53.5,551.5 Z"/></g>
<g><path style="opacity:1" fill="#828282" d="M 628.5,552.5 C 630.027,552.427 631.027,553.094 631.5,554.5C 629.973,554.573 628.973,553.906 628.5,552.5 Z"/></g>
<g><path style="opacity:1" fill="#959595" d="M 1266.5,553.5 C 1268.03,553.427 1269.03,554.094 1269.5,555.5C 1267.97,555.573 1266.97,554.906 1266.5,553.5 Z"/></g>
<g><path style="opacity:1" fill="#8a8a8a" d="M 57.5,554.5 C 59.0269,554.427 60.0269,555.094 60.5,556.5C 58.9731,556.573 57.9731,555.906 57.5,554.5 Z"/></g>
<g><path style="opacity:1" fill="#878787" d="M 632.5,555.5 C 634.027,555.427 635.027,556.094 635.5,557.5C 633.973,557.573 632.973,556.906 632.5,555.5 Z"/></g>
<g><path style="opacity:1" fill="#828282" d="M 60.5,556.5 C 62.0269,556.427 63.0269,557.094 63.5,558.5C 61.9731,558.573 60.9731,557.906 60.5,556.5 Z"/></g>
<g><path style="opacity:1" fill="#929292" d="M 63.5,558.5 C 65.0269,558.427 66.0269,559.094 66.5,560.5C 64.9731,560.573 63.9731,559.906 63.5,558.5 Z"/></g>
</svg>
