<svg xmlns="http://www.w3.org/2000/svg" width="1566" height="584" style="shape-rendering:geometricPrecision;text-rendering:geometricPrecision;image-rendering:optimizeQuality;fill-rule:evenodd;clip-rule:evenodd">
  <path fill="#FFFFFF" d="M279 0h2l3 7 3 14c6 11 13 21 23 29 8 7 17 9 28 8 6-2 11-6 15-12l5-22c2-3 6-4 10-3-5 37-24 63-57 79l-34-1c-5 2-8 5-10 10 0 22 0 45 2 68l11 7 59-1-1 10c-4 14-6 28-8 43-5 2-9 3-14 3l-21-2c-9-1-17 2-24 7-5 6-7 12-6 20 2 35 1 71-3 107-4 29-12 58-24 85a93 93 0 0 1-63 17c-9-2-17-5-25-9-22-12-43-24-63-37-12-6-23-11-35-15-17-2-29 6-35 22l-2 7v37c13 28 35 48 65 59 28 10 57 14 87 13l39-2c23-4 39-17 49-38l7-21c2-4 5-6 10-5l1 2c-6 33-23 60-51 79-19 10-39 16-60 19h-26c-31-3-59-14-83-32-21-19-37-42-48-68l-5-23v-18c5-32 17-61 37-86 18-18 39-25 64-22l6-6 2-13 3-69c-2-5-5-9-8-12-22 0-43 2-63 6-5-9-6-17-3-26l7-26c1-4 3-6 6-8 5-2 11-2 18-1l26 5c13-1 19-8 20-21a1238 1238 0 0 1-4-63c-3-4-7-6-10-8l-31 4-12-1c1-5 5-7 10-8 60 3 115-13 164-48 16-12 32-26 47-40Zm-65 69c3-1 6 0 10 2l28 25 6 10c-3 15-4 30-3 45a1417 1417 0 0 1-1 166c1 22-5 43-17 63a35 35 0 0 1-38 9l-14-6-39-27-26-13c-3-3-4-6-3-10 7-15 19-24 36-26 16-2 33-1 49 4l5-5c-4-27-6-54-5-81l3-149c2-4 5-6 9-7Z"/>
  <path fill="#FFFFFF" d="M1566 382v2l-9 2c-25-2-49 3-71 14l-41 21c-9 8-18 17-25 27-5 8-8 18-8 28-4 1-7 0-9-1-36-42-81-59-135-50-17 6-29 17-37 33-2 4-3 10-3 15 1 17 7 33 17 47 7 7 15 11 25 14 33 11 68 14 103 9 25-2 49-7 74-14 21-13 33-32 35-57 2-4 5-6 10-6-2 39-20 69-54 89-62 33-122 31-180-6a91 91 0 0 1-40-68c-3-56 19-98 67-126 6-28 8-56 4-84-5-6-12-9-20-9l-34 7c-6 2-9 6-11 12a594 594 0 0 1-8 25c-9-28-5-54 11-78 6-8 14-12 24-13 9-1 18 0 27 2 6-1 11-5 13-11 1-11 1-21-1-31-1-7-4-12-9-16h-9l-22 6c-3-1-6-1-8-3l8-7c29-2 57-6 86-14 18-5 35-14 51-26-4-4-8-7-13-8l-20-3a306 306 0 0 0-81 7c-27-3-44-17-52-42-7-19-11-38-10-58l4-6c2 1 4 2 5 5-1 12 5 20 18 23l82-4 107-9c34-3 69 0 103 9 19 12 30 29 31 53l2 46c-2 64-3 129-2 194 1 20 2 40 5 60ZM1439 99c10-2 20 0 30 6 9 14 13 30 10 47-2 12-3 25-3 38 2 69 2 138-1 207-2 3-5 4-9 5-10-3-18-7-25-14l-14-7-6-7a3950 3950 0 0 0 3-268c4-4 9-6 15-7Zm-34 14c2-1 4 0 6 2l4 8-4 8-2 238-8 2-32-7-52-2c-24-1-27-8-7-22 20-13 42-19 66-16l1-2a2655 2655 0 0 1 5-194c8-4 16-9 23-15Z"/>
  <path fill="#FFFFFF" d="m962 396 5-5c3-6 8-11 14-15 5-1 8 1 8 7l-47 52c-10 13-17 27-22 43l-3 1-11-4-10-9-28-18c-7-5-11-10-13-17-4-28-11-54-20-80l-7-31c-5-11-13-16-24-17l-62 3c-12 1-23 3-34 6-6 16-11 32-15 49l7 4c10 1 21 4 31 8l41 22 18-23c4-4 9-6 16-5l-1 7c-19 18-37 37-55 57-10 13-17 28-21 45l-4 4-36-38a73 73 0 0 0-46-17c-20-1-34 8-42 27-11 35-1 63 31 83 28 15 57 19 89 11 16-4 31-10 46-18 12-10 20-22 24-37l4-18 6-4 2 2c2 4 2 9 1 14-6 28-20 52-41 72l-14 9c-34 13-67 13-100 0-34-18-55-45-64-82-1-36 10-67 35-93l7-6c10-12 23-19 39-20 6-2 11-6 14-12l42-161c8-31 18-62 30-91 1-32-13-56-39-73-38-13-66-3-86 32-6 15-6 30 1 45 7 7 16 14 25 20 13 4 27 4 41 1 10-6 18-14 23-25 1-3 3-5 6-7 1-1 3 0 4 2 2 5 1 10-1 15l-13 24c-24 20-49 22-75 5a64 64 0 0 1-26-63c1-13 5-24 13-33 19-21 42-32 70-35 44-6 84 4 120 31 12 11 22 24 30 39 2 3 6 4 10 3l13-53c3-2 6-1 8 2l-8 31c-9 43-6 85 11 126a7475 7475 0 0 0 51 190c3 7 8 13 15 18 5 5 11 4 17 0ZM760 110l6 3a1784 1784 0 0 1 37 143l-4 5c-26 1-52 0-77-3 3-25 8-49 15-73l23-75Z"/>
  <path fill="#FFFFFF" d="m58 96 12 1H57l1-1Z"/>
  <path fill="#FFFFFF" d="m111 101 2 7-2-7Z"/>
  <path fill="#FFFFFF" d="m627 385-7 6c1-3 4-5 7-6Z"/>
  <path fill="#FFFFFF" d="m967 391-5 5 5-5Z"/>
</svg>
