<?xml version="1.0" encoding="UTF-8"?>
<!DOCTYPE svg PUBLIC "-//W3C//DTD SVG 1.1//EN" "http://www.w3.org/Graphics/SVG/1.1/DTD/svg11.dtd">
<svg xmlns="http://www.w3.org/2000/svg" version="1.1" width="1566px" height="584px" style="shape-rendering:geometricPrecision; text-rendering:geometricPrecision; image-rendering:optimizeQuality; fill-rule:evenodd; clip-rule:evenodd" xmlns:xlink="http://www.w3.org/1999/xlink">
<g><path style="opacity:1" fill="#fafafa" d="M 278.5,-0.5 C 279.167,-0.5 279.833,-0.5 280.5,-0.5C 282.18,1.52743 283.347,3.86077 284,6.5C 284.786,11.2196 285.786,15.8863 287,20.5C 292.681,31.6821 300.181,41.5154 309.5,50C 317.672,56.7239 327.005,59.3906 337.5,58C 344.139,55.6974 349.306,51.5307 353,45.5C 354.609,38.1781 356.109,30.8448 357.5,23.5C 360.278,20.693 363.611,19.8596 367.5,21C 363.186,57.9739 344.186,84.3072 310.5,100C 299.195,99.1962 287.862,98.8628 276.5,99C 272,100.833 268.833,104 267,108.5C 266.641,131.181 267.141,153.847 268.5,176.5C 272.167,179 275.833,181.5 279.5,184C 299.199,184.236 318.866,183.736 338.5,182.5C 338.665,185.85 338.498,189.183 338,192.5C 334.371,206.682 331.538,221.015 329.5,235.5C 325.394,237.958 320.894,238.958 316,238.5C 308.808,238.122 301.641,237.455 294.5,236.5C 285.591,236.304 277.591,238.804 270.5,244C 265.954,249.675 263.954,256.175 264.5,263.5C 266.842,299.225 266.008,334.892 262,370.5C 258.374,400.204 250.207,428.537 237.5,455.5C 218.619,468.96 197.619,474.794 174.5,473C 165.873,470.791 157.54,467.791 149.5,464C 128.007,452.423 107.007,440.09 86.5,427C 75.4035,420.617 63.7368,415.617 51.5,412C 34.6131,410.367 23.1131,417.533 17,433.5C 16.1779,435.788 15.5112,438.122 15,440.5C 14.3333,452.833 14.3333,465.167 15,477.5C 28.2722,506.085 49.7722,525.919 79.5,537C 107.697,546.65 136.697,550.817 166.5,549.5C 179.527,549.551 192.527,549.051 205.5,548C 228.601,543.695 245.101,530.861 255,509.5C 257.333,502.5 259.667,495.5 262,488.5C 264.28,484.941 267.447,483.441 271.5,484C 272,484.5 272.5,485 273,485.5C 267.149,519.347 249.982,545.847 221.5,565C 202.562,574.897 182.562,581.063 161.5,583.5C 152.833,583.5 144.167,583.5 135.5,583.5C 104.982,580.604 77.3149,570.104 52.5,552C 31.5883,532.673 15.755,509.839 5,483.5C 2.69968,475.806 0.866349,468.14 -0.5,460.5C -0.5,454.5 -0.5,448.5 -0.5,442.5C 4.60837,410.616 17.1084,381.949 37,356.5C 54.5644,339.2 75.7311,332.033 100.5,335C 103.333,333.5 105.5,331.333 107,328.5C 108.126,324.251 108.792,319.918 109,315.5C 110.703,292.516 111.703,269.516 112,246.5C 110.021,242.044 107.187,238.21 103.5,235C 82.3156,234.743 61.3156,236.576 40.5,240.5C 36.2676,232.233 35.4342,223.566 38,214.5C 40.9136,206.001 43.247,197.334 45,188.5C 46.0608,185.438 47.8941,182.938 50.5,181C 56.4149,179.473 62.4149,179.139 68.5,180C 77.1189,181.822 85.7855,183.322 94.5,184.5C 107.81,184.025 114.476,177.191 114.5,164C 113.403,145.18 112.737,126.347 112.5,107.5C 113.01,104.612 112.344,102.279 110.5,100.5C 107.602,97.3722 104.268,94.7055 100.5,92.5C 90.2487,94.3929 79.9154,95.7262 69.5,96.5C 65.2984,96.8168 61.2984,96.4834 57.5,95.5C 59.4353,91.3433 62.7686,88.8433 67.5,88C 128.045,91.3664 182.712,75.3664 231.5,40C 248.244,27.7569 263.91,14.2569 278.5,-0.5 Z M 213.5,68.5 C 217.059,68.4081 220.392,69.2415 223.5,71C 233.466,78.5751 242.966,86.7418 252,95.5C 254.087,98.6728 255.921,102.006 257.5,105.5C 255.12,120.549 254.12,135.715 254.5,151C 256.096,183.151 256.596,215.318 256,247.5C 252.453,270.392 251.619,293.392 253.5,316.5C 254.637,339.343 249.137,360.343 237,379.5C 226.261,390.652 213.428,393.819 198.5,389C 193.669,387.39 189.003,385.39 184.5,383C 171.5,374 158.5,365 145.5,356C 137.081,351.124 128.414,346.791 119.5,343C 116.735,340.005 115.902,336.505 117,332.5C 124.301,317.889 136.134,309.389 152.5,307C 169.196,305.019 185.696,306.186 202,310.5C 203.944,309.312 205.444,307.646 206.5,305.5C 202.998,278.807 201.332,251.974 201.5,225C 202.774,175.169 203.941,125.336 205,75.5C 206.851,71.8432 209.684,69.5099 213.5,68.5 Z"/></g>
<g><path style="opacity:1" fill="#fbfbfb" d="M 1565.5,381.5 C 1565.5,382.167 1565.5,382.833 1565.5,383.5C 1562.72,384.968 1559.72,385.801 1556.5,386C 1531.58,384.385 1507.91,389.051 1485.5,400C 1471.99,407.255 1458.32,414.255 1444.5,421C 1435.6,429.232 1427.43,438.066 1420,447.5C 1414.93,456.37 1412.1,465.87 1411.5,476C 1408.37,476.79 1405.37,476.457 1402.5,475C 1367.12,432.826 1322.12,416.16 1267.5,425C 1250.91,430.926 1238.74,441.759 1231,457.5C 1229.07,462.493 1227.9,467.66 1227.5,473C 1229.4,490.051 1235.24,505.551 1245,519.5C 1251.83,526.501 1260,531.335 1269.5,534C 1303.28,544.576 1337.61,547.576 1372.5,543C 1397.64,540.639 1422.3,535.972 1446.5,529C 1467.83,515.871 1479.66,496.704 1482,471.5C 1484.3,468.02 1487.46,466.02 1491.5,465.5C 1489.88,505.275 1471.88,535.108 1437.5,555C 1376.29,587.83 1316.29,585.83 1257.5,549C 1233.91,532.333 1220.74,509.499 1218,480.5C 1215.13,424.901 1237.46,382.901 1285,354.5C 1291.49,326.693 1292.82,298.693 1289,270.5C 1283.7,264.515 1277.03,261.515 1269,261.5C 1257.43,263.578 1245.93,266.078 1234.5,269C 1229.29,271.247 1225.79,275.08 1224,280.5C 1222.13,287.532 1220.13,294.532 1218,301.5C 1217.42,303.002 1216.58,304.335 1215.5,305.5C 1206.87,277.872 1210.71,251.872 1227,227.5C 1233.15,220.339 1240.98,216.172 1250.5,215C 1259.59,214.071 1268.59,214.571 1277.5,216.5C 1284.49,215.769 1288.99,212.102 1291,205.5C 1291.84,195.122 1291.5,184.788 1290,174.5C 1288.74,168.146 1285.57,162.979 1280.5,159C 1277.5,158.333 1274.5,158.333 1271.5,159C 1264.49,161.45 1257.32,163.283 1250,164.5C 1246.92,164.356 1244.08,163.522 1241.5,162C 1243.87,159.294 1246.54,156.961 1249.5,155C 1278.69,153.497 1307.36,148.83 1335.5,141C 1354.34,135.746 1371.34,127.079 1386.5,115C 1382.94,111.112 1378.61,108.446 1373.5,107C 1366.97,105.122 1360.31,104.122 1353.5,104C 1341.83,103.333 1330.17,103.333 1318.5,104C 1303.35,106.442 1288.19,108.608 1273,110.5C 1246.24,108.428 1228.91,94.4276 1221,68.5C 1213.56,49.8443 1210.22,30.511 1211,10.5C 1212.33,8.5 1213.67,6.5 1215,4.5C 1217.33,5.5 1219,7.16667 1220,9.5C 1218.98,22.4738 1224.81,30.3071 1237.5,33C 1264.77,31.163 1292.1,29.8297 1319.5,29C 1355.16,25.9339 1390.83,22.9339 1426.5,20C 1461.36,17.3215 1495.69,20.3215 1529.5,29C 1549.31,40.7617 1559.81,58.2617 1561,81.5C 1561.91,96.8196 1562.41,112.153 1562.5,127.5C 1560.69,192.157 1560.19,256.823 1561,321.5C 1561.51,341.727 1563.01,361.727 1565.5,381.5 Z M 1438.5,98.5 C 1449.33,97.1649 1459.33,99.3315 1468.5,105C 1478.04,119.024 1481.54,134.524 1479,151.5C 1477.47,164.302 1476.3,177.136 1475.5,190C 1478.17,258.843 1478.01,327.676 1475,396.5C 1472.78,399.755 1469.61,401.422 1465.5,401.5C 1456.05,399.108 1447.72,394.608 1440.5,388C 1436.11,385.139 1431.45,382.806 1426.5,381C 1424.3,378.766 1422.47,376.266 1421,373.5C 1423.99,287.348 1424.15,201.181 1421.5,115C 1421.31,111.757 1421.97,108.757 1423.5,106C 1428.05,102.394 1433.05,99.8939 1438.5,98.5 Z M 1404.5,112.5 C 1407.04,112.104 1409.21,112.771 1411,114.5C 1412.55,117.206 1413.71,120.04 1414.5,123C 1413.14,125.398 1411.98,127.898 1411,130.5C 1410,209.83 1409.16,289.164 1408.5,368.5C 1405.99,369.781 1403.32,370.448 1400.5,370.5C 1389.77,368.651 1379.1,366.485 1368.5,364C 1351.18,362.991 1333.85,362.324 1316.5,362C 1292.7,361.325 1290.37,353.991 1309.5,340C 1329.56,326.82 1351.56,321.487 1375.5,324C 1376.13,323.25 1376.63,322.416 1377,321.5C 1375.78,258.8 1376.78,196.133 1380,133.5C 1380.25,131.567 1380.75,129.734 1381.5,128C 1389.92,123.801 1397.59,118.634 1404.5,112.5 Z"/></g>
<g><path style="opacity:1" fill="#fafafa" d="M 961.5,395.5 C 964.167,394.833 965.833,393.167 966.5,390.5C 970.291,384.875 974.957,380.042 980.5,376C 985.748,375.265 988.581,377.432 989,382.5C 972.964,399.535 957.297,416.868 942,434.5C 932.307,447.551 924.974,461.885 920,477.5C 919.107,478.081 918.107,478.415 917,478.5C 913.24,477.136 909.407,475.969 905.5,475C 902.465,471.63 899.132,468.63 895.5,466C 886.167,460 876.833,454 867.5,448C 861.481,443.452 857.315,437.619 855,430.5C 850.53,403.285 843.863,376.619 835,350.5C 832.193,340.271 829.859,329.937 828,319.5C 823.032,309.386 814.866,303.719 803.5,302.5C 782.852,303.777 762.185,304.944 741.5,306C 729.975,306.921 718.642,308.921 707.5,312C 701.803,327.967 696.969,344.133 693,360.5C 694.731,362.617 696.898,364.117 699.5,365C 710.265,366.07 720.598,368.737 730.5,373C 744.482,379.657 758.149,386.823 771.5,394.5C 777.609,387.13 783.609,379.63 789.5,372C 794.021,367.882 799.354,366.048 805.5,366.5C 805.663,368.857 805.497,371.19 805,373.5C 785.939,391.893 767.606,410.893 750,430.5C 740.048,444.074 733.048,459.074 729,475.5C 727.667,476.833 726.333,478.167 725,479.5C 712.47,467.304 700.304,454.804 688.5,442C 675.188,430.844 659.855,425.01 642.5,424.5C 622.714,424.312 608.881,433.312 601,451.5C 589.796,487.228 599.963,515.061 631.5,535C 659.692,550.025 689.359,553.692 720.5,546C 736.707,542.23 752.04,536.23 766.5,528C 778.532,518.123 786.699,505.623 791,490.5C 792.334,484.492 793.668,478.492 795,472.5C 796.745,471.044 798.578,469.711 800.5,468.5C 801.478,468.977 802.311,469.643 803,470.5C 804.545,475.047 804.879,479.713 804,484.5C 797.558,512.884 783.724,537.05 762.5,557C 758.102,560.394 753.435,563.394 748.5,566C 715.114,578.605 681.78,578.605 648.5,566C 614.9,548.067 593.733,520.567 585,483.5C 583.663,447.547 595.163,416.547 619.5,390.5C 622.427,389.243 624.761,387.243 626.5,384.5C 636.77,372.698 649.77,366.198 665.5,365C 672.181,362.987 677.014,358.82 680,352.5C 694.14,298.942 708.14,245.275 722,191.5C 730.202,160.56 740.202,130.227 752,100.5C 752.531,68.7194 739.364,44.5527 712.5,28C 675.245,14.9718 646.745,25.4718 627,59.5C 620.755,74.6627 621.089,89.6627 628,104.5C 635.334,112.405 643.501,119.238 652.5,125C 666.131,128.82 679.798,129.154 693.5,126C 704.39,120.438 712.223,111.938 717,100.5C 718.458,98.04 720.291,95.8734 722.5,94C 724.367,93.2888 725.867,93.7888 727,95.5C 728.791,100.583 728.457,105.583 726,110.5C 722.161,118.851 717.827,126.851 713,134.5C 689.42,155.306 664.253,157.139 637.5,140C 616.708,123.99 608.208,102.824 612,76.5C 612.714,64.0726 617.047,53.0726 625,43.5C 643.616,23.1089 666.783,11.6089 694.5,9C 738.918,2.77001 778.918,13.1033 814.5,40C 827.278,50.7517 837.278,63.585 844.5,78.5C 847.372,82.0346 850.872,83.0346 855,81.5C 858.862,63.7175 863.196,46.0508 868,28.5C 871.206,26.8756 873.872,27.5422 876,30.5C 872.956,40.8347 870.123,51.3347 867.5,62C 858.57,105.014 862.404,146.847 879,187.5C 882.499,206.998 887.832,225.998 895,244.5C 906.26,288.946 917.927,333.279 930,377.5C 933.369,384.863 938.202,391.029 944.5,396C 950.413,400.664 956.08,400.498 961.5,395.5 Z M 759.5,109.5 C 762.099,109.549 764.266,110.549 766,112.5C 780.041,156.328 792.375,200.662 803,245.5C 803.667,248.833 803.667,252.167 803,255.5C 802.315,258.057 800.815,259.891 798.5,261C 772.708,262.275 747.042,261.108 721.5,257.5C 725.239,232.876 730.405,208.543 737,184.5C 744.349,159.436 751.849,134.436 759.5,109.5 Z"/></g>
<g><path style="opacity:1" fill="#999999" d="M 57.5,95.5 C 61.2984,96.4834 65.2984,96.8168 69.5,96.5C 65.3171,97.8111 60.9838,97.8111 56.5,96.5C 56.6236,95.8933 56.9569,95.56 57.5,95.5 Z"/></g>
<g><path style="opacity:1" fill="#646464" d="M 110.5,100.5 C 112.344,102.279 113.01,104.612 112.5,107.5C 111.732,105.285 111.065,102.952 110.5,100.5 Z"/></g>
<g><path style="opacity:1" fill="#a2a2a2" d="M 626.5,384.5 C 624.761,387.243 622.427,389.243 619.5,390.5C 621.239,387.757 623.573,385.757 626.5,384.5 Z"/></g>
<g><path style="opacity:1" fill="#959595" d="M 966.5,390.5 C 965.833,393.167 964.167,394.833 961.5,395.5C 962.833,393.5 964.5,391.833 966.5,390.5 Z"/></g>
</svg>
