<svg xmlns="http://www.w3.org/2000/svg" width="1566" height="584" style="shape-rendering:geometricPrecision;text-rendering:geometricPrecision;image-rendering:optimizeQuality;fill-rule:evenodd;clip-rule:evenodd">
  <path style="opacity:1" fill="#0a0a0a" d="M281 1c-1 1 0 2 2 3 2 14 8 27 19 39 1 3 3 5 6 6 13 12 27 13 42 3l2-3 2-5 3-18c1-3 2-4 5-4h4v9a91 91 0 0 1-56 69l-27-2c-7 0-13 3-16 10l1 69 12 7h59l-9 51c-4 3-8 4-13 4-12-3-24-3-35-1-13 4-19 13-17 26 2 35 1 70-3 106-3 29-11 57-24 85a80 80 0 0 1-83 11 211 211 0 0 1-46-26 264 264 0 0 0-56-27c-21-3-33 6-38 27v39l5 10a2205 2205 0 0 1 11 16c22 23 49 36 82 41 34 6 68 6 103 0a10593 10593 0 0 1 21-11c3-1 5-3 6-6l4-4 2-3c0-2 1-3 2-3l2-3a1186 1186 0 0 0 12-29l3-2c3-2 5-1 6 3-16 59-54 91-114 96h-21a153 153 0 0 1-85-32c-21-19-37-41-48-66l-6-27v-15a202 202 0 0 1 30-76l2-3 1-1 3-4c17-20 38-28 65-25 3-1 5-3 6-5l2-12 5-69c-3-6-6-10-10-14-21 0-41 1-60 5l-4-1-3-13c1-13 4-25 8-36 2-8 8-11 16-10l34 5c4 0 9-1 13-3l5-5 2-14-4-62-5-6a548 548 0 0 1-48 1l1-1 3-3c1-3 4-4 7-4a244 244 0 0 0 163-47l3-2a26941 26941 0 0 0 46-38Zm-52 74c0 1 1 2 3 2l2 2c0 1 1 2 3 2l2 2c0 1 1 2 3 2l1 1 4 3c4 4 8 10 11 17-3 14-4 29-3 45a1416 1416 0 0 1-5 201l-7 21c-2 0-3 1-2 3-2 0-3 1-2 3-2 0-3 1-3 3l-5 5c-13 6-26 6-38 0l-12-6-42-29-18-8c-4-3-5-7-4-12 6-12 15-19 27-23 19-5 39-4 59 2l2-3-3-84 3-148c4-7 10-9 18-6l6 5Z"/>
  <path style="opacity:1" fill="#5a5a5a" d="M279 0h2v1l-6 4 4-5Z"/>
  <path style="opacity:1" fill="#8d8d8d" d="M281 1c1 0 2 1 2 3-2-1-3-2-2-3Z"/>
  <path style="opacity:1" fill="#080808" d="m1545 42 3 4c8 11 13 23 13 38 2 35 2 70 0 106v135c1 19 2 38 5 58v1l-10 2c-24-2-46 2-66 12l-46 23-25 28c-4 8-7 16-7 26-3 2-7 2-10-1a444 444 0 0 0-30-28c-1-2-2-3-3-2-1-2-2-3-3-2l-2-1c-1-2-2-3-3-2-31-16-63-20-96-13-36 16-45 41-30 77l7 13c-1 1 0 2 2 3 4 4 9 8 15 11 25 10 52 15 81 16 33-2 67-7 100-14 10-4 19-10 27-18l2-3c7-12 12-25 14-39l5-4 2-1 1 13c-6 31-23 56-50 73-22 12-45 20-69 24a164 164 0 0 1-127-39 93 93 0 0 1-27-71 119 119 0 0 1 30-80c0-2 1-3 3-3l7-8 3-2c2-4 5-7 9-8l3-2c1-2 3-4 6-4l3-2c0-1 1-2 2-1 2-1 3-3 3-5 4-27 6-54 3-80l-2-3c0-2-1-3-3-3-1-2-2-3-3-2-7-2-13-3-19-2l-31 8c-8 8-12 17-13 29l-4 7c-6-22-5-44 4-64 2-5 5-10 9-13l3-4c5-6 12-9 21-10 8-1 17 0 26 2a1293 1293 0 0 1 9-3l4-7c1-12 1-23-1-33-1-7-4-12-9-15h-5c-9 1-17 3-25 6-10-1-11-3-3-7l3-2c30-2 59-8 89-16 16-6 32-14 47-24v-2c-1-2-2-3-3-2-6-4-12-6-18-7-29-4-57-2-84 5-16 3-29-1-40-11l-4-3-12-15c-9-20-14-41-15-62-2-6 0-10 5-13l4 4 3 16 14 7 85-4 107-9c34-2 67 1 101 9 5 3 10 7 15 13Zm-119 340c0-2-1-3-2-3-3-4-4-8-3-13 3-86 3-172 1-258 7-7 15-10 24-9 16-1 27 6 31 22 2 6 3 13 3 21l-4 48c2 70 2 139-1 209-6 3-11 3-16 1-8-3-15-8-20-13l-13-5Zm-15-189-2 177h-13l-28-6-53-2c-6 0-12-1-17-3-1-3-2-6-1-8 20-20 44-29 73-27l3 1 3-2 1-1a3071 3071 0 0 1 5-194l24-16c5 1 8 5 9 11l-4 9v61Z"/>
  <path style="opacity:1" fill="#0a0a0a" d="M828 54c-1 1 0 2 2 3l2 2c-1 1 0 2 2 3 4 5 8 11 11 18 2 0 3 1 5 3l3 1 3-2c3-18 7-35 12-52 1-3 3-3 6-1-1 1 0 2 2 3-19 52-18 104 3 157l6 27a1194 1194 0 0 1 43 156c2 5 4 11 8 16-1 1 0 2 2 3 4 4 9 7 16 9 5-2 10-5 14-9l2-3 2-2 2-3c2-4 5-6 9-7 5 1 7 3 5 8l-45 49c-10 13-18 27-22 44l-4 2-10-4a181 181 0 0 1-15-12c-1-2-2-3-3-2a128 128 0 0 1-19-12c-7-4-11-10-14-16-6-31-13-61-23-90l-5-24c-5-10-14-16-25-16l-63 3c-11 1-22 3-32 6-2 0-2 0-2 2l-13 43c-1 4 1 7 6 8 9 1 19 3 29 7a566 566 0 0 1 46 23l2-3 1-1 2-3c0-2 1-4 3-4l2-3c4-10 11-14 22-14l-1 6-49 50c-13 15-22 32-27 53l-2 2-5-2a638 638 0 0 1-38-38c-1-2-2-3-3-2a69 69 0 0 0-57-9 51 51 0 0 0-27 50c-1 14 3 27 12 39l3 4c21 20 46 30 76 30 28-1 53-7 78-21a181 181 0 0 0 14-13c8-14 13-28 15-43l4-2h4l1 2c0 14-4 28-10 42-8 13-17 26-27 38a82 82 0 0 1-48 21c-28 5-53 1-77-12l-6-4c-1-2-2-3-3-2l-1-1c-1-2-2-3-3-2l-3-3c-2-3-3-4-5-4l-2-2c0-2-1-3-3-3-37-40-41-83-12-128l2-3c1-5 4-8 8-11l3-4 11-11 4-3c1-3 2-4 5-4l3-2c7-7 16-11 27-10l6-2 3-2 2-3 5-13 46-177c7-23 14-45 23-66 1-27-8-49-27-66-1-2-2-3-3-2l-1-1c-1-2-2-3-3-2-34-16-63-10-86 20a56 56 0 0 0-4 54l3 4c7 6 15 12 25 17 14 4 28 3 43-1l3-2c2-4 5-7 9-9l2-3c2-7 5-12 11-17l2 1 3 7-12 27c-18 23-41 29-68 17-4-1-8-4-10-6-1-2-2-3-3-2l-2-2c-2-3-4-5-6-5a56 56 0 0 1-16-37c-3-24 4-43 22-58l5-4c12-10 25-17 41-20 46-11 88-3 128 23 7 5 14 11 20 19Zm-64 56 2 2c15 45 28 92 39 139-1 4-3 8-6 10a487 487 0 0 1-77-3v-4a783 783 0 0 1 42-144Z"/>
  <path style="opacity:1" fill="#717171" d="m267 13-5 4c1-3 2-4 5-4Z"/>
  <path style="opacity:1" fill="#959595" d="M362 22c1-1 3-2 5-1l-1 10v-9h-4Z"/>
  <path style="opacity:1" fill="#848484" d="M874 29c1 0 2 1 2 3-2-1-3-2-2-3Z"/>
  <path style="opacity:1" fill="#787878" d="M718 31c1-1 2 0 3 2-2 0-3-1-3-2Z"/>
  <path style="opacity:1" fill="#5f5f5f" d="m639 32-5 4c1-3 2-4 5-4Z"/>
  <path style="opacity:1" fill="#717171" d="M722 34c1-1 2 0 3 2-2 0-3-1-3-2Z"/>
  <path style="opacity:1" fill="#727272" d="m235 39-3 2c0-2 1-3 3-2Z"/>
  <path style="opacity:1" fill="#737373" d="m1545 42 3 4-3-4Z"/>
  <path style="opacity:1" fill="#9a9a9a" d="m302 43 6 6c-3-1-5-3-6-6Z"/>
  <path style="opacity:1" fill="gray" d="m352 49-2 3c-1-2 0-3 2-3Z"/>
  <path style="opacity:1" fill="#8d8d8d" d="M828 54c1 0 2 1 2 3-2-1-3-2-2-3Zm4 5c1 0 2 1 2 3-2-1-3-2-2-3Z"/>
  <path style="opacity:1" fill="#7a7a7a" d="M229 75c1-1 2 0 3 2-2 0-3-1-3-2Z"/>
  <path style="opacity:1" fill="#787878" d="M234 79c1-1 2 0 3 2-2 0-3-1-3-2Z"/>
  <path style="opacity:1" fill="#a9a9a9" d="m856 82-3 2-3-1 6-1Z"/>
  <path style="opacity:1" fill="#828282" d="M239 83c1-1 2 0 3 2-2 0-3-1-3-2Z"/>
  <path style="opacity:1" fill="#767676" d="m243 86 4 3-4-3Z"/>
  <path style="opacity:1" fill="#848484" d="m62 92-3 3c0-2 1-3 3-3Z"/>
  <path style="opacity:1" fill="#767676" d="M103 93c1-1 2 0 3 2-2 0-3-1-3-2Z"/>
  <path style="opacity:1" fill="#838383" d="m1238 96 4 3-4-3Z"/>
  <path style="opacity:1" fill="#cdcdcd" d="m58 96 10 1H57l1-1Z"/>
  <path style="opacity:1" fill="#7e7e7e" d="m628 105 3 4-3-4Z"/>
  <path style="opacity:1" fill="#7c7c7c" d="M764 110c-2-1-4 0-5 1 0-2 1-2 2-2l3 1Z"/>
  <path style="opacity:1" fill="#848484" d="M1384 112c1-1 2 0 3 2-2 0-3-1-3-2Z"/>
  <path style="opacity:1" fill="#767676" d="m713 111-2 3c-1-2 0-3 2-3Z"/>
  <path style="opacity:1" fill="#7b7b7b" d="m702 123-3 2c0-2 1-3 3-2Z"/>
  <path style="opacity:1" fill="#979797" d="M628 131c2 0 4 2 6 5-3-1-5-3-6-5Z"/>
  <path style="opacity:.4" fill="#dcdcdc" d="m1382 128-2 4c-1-2 0-4 2-4Z"/>
  <path style="opacity:1" fill="#7e7e7e" d="M636 138c1-1 2 0 3 2-2 0-3-1-3-2Z"/>
  <path style="opacity:1" fill="#747474" d="m1251 156-3 2c0-2 1-3 3-2Z"/>
  <path style="opacity:1" fill="#848484" d="m113 177-5 5 5-5Z"/>
  <path style="opacity:1" fill="#747474" d="m1287 214-3 2c0-2 1-3 3-2Z"/>
  <path style="opacity:1" fill="#6e6e6e" d="m1231 225-3 4c0-2 1-4 3-4Z"/>
  <path style="opacity:1" fill="#bcbcbc" d="M722 254v4c1-1 2 0 3 1h-4c-1-2 0-4 1-5Z"/>
  <path style="opacity:1" fill="#929292" d="M1282 264c1-1 2 0 3 2-2 0-3-1-3-2Z"/>
  <path style="opacity:1" fill="#747474" d="M1285 266c2 0 3 1 3 3l-3-3Z"/>
  <path style="opacity:1" fill="#c8c8c8" d="m708 312-2 2c0-2 0-2 2-2Z"/>
  <path style="opacity:1" fill="#9e9e9e" d="M1411 193Z"/>
  <path style="opacity:1" fill="#d1d1d1" d="m1376 323-3 2-3-1 6-1Z"/>
  <path style="opacity:1" fill="#838383" d="M1287 352c0 2-1 4-3 5l3-5Z"/>
  <path style="opacity:1" fill="#919191" d="m678 358-2 3c-1-2 0-3 2-3Z"/>
  <path style="opacity:1" fill="#717171" d="m1282 358-3 2c0-2 1-3 3-2Z"/>
  <path style="opacity:1" fill="#7a7a7a" d="m36 360-3 4c0-2 1-4 3-4Z"/>
  <path style="opacity:1" fill="gray" d="m676 361-3 2c0-2 1-3 3-2Z"/>
  <path style="opacity:1" fill="#7d7d7d" d="m1273 364-3 2c0-2 1-3 3-2Z"/>
  <path style="opacity:1" fill="#858585" d="m32 365-2 3c-1-2 0-3 2-3Z"/>
  <path style="opacity:1" fill="#7f7f7f" d="m243 373-2 3c-1-2 0-3 2-3Z"/>
  <path style="opacity:1" fill="#7b7b7b" d="m1261 374-3 2c0-2 1-3 3-2Z"/>
  <path style="opacity:1" fill="#939393" d="m26 374-2 3c-1-2 0-3 2-3Z"/>
  <path style="opacity:1" fill="#7a7a7a" d="m640 375-3 2c0-2 1-3 3-2Z"/>
  <path style="opacity:1" fill="#7b7b7b" d="m241 376-2 3c-1-2 0-3 2-3Z"/>
  <path style="opacity:1" fill="#7f7f7f" d="m1258 376-7 8c1-4 3-6 7-8Z"/>
  <path style="opacity:1" fill="#929292" d="M1424 379c1 0 2 1 2 3-2-1-3-2-2-3Z"/>
  <path style="opacity:1" fill="#7c7c7c" d="m632 381-4 3c0-2 2-3 4-3Z"/>
  <path style="opacity:1" fill="#7e7e7e" d="m784 381-2 3c-1-2 0-3 2-3Z"/>
  <path style="opacity:1" fill="#8f8f8f" d="m974 383-2 3c-1-2 0-3 2-3Z"/>
  <path style="opacity:1" fill="#616161" d="m236 382-5 5 5-5Z"/>
  <path style="opacity:1" fill="#8a8a8a" d="M936 388c1 0 2 1 2 3-2-1-3-2-2-3Z"/>
  <path style="opacity:1" fill="#757575" d="m970 388-2 3c-1-2 0-3 2-3Z"/>
  <path style="opacity:1" fill="#737373" d="m1248 387-2 3c-1-2 0-3 2-3Z"/>
  <path style="opacity:1" fill="#767676" d="m779 388-2 3c-1-2 0-3 2-3Z"/>
  <path style="opacity:1" fill="gray" d="m776 392-2 3c-1-2 0-3 2-3Z"/>
  <path style="opacity:1" fill="#757575" d="m617 395-3 4c0-2 1-4 3-4Z"/>
  <path style="opacity:1" fill="gray" d="m606 410-2 3c-1-2 0-3 2-3Z"/>
  <path style="opacity:1" fill="#8f8f8f" d="M681 436c1-1 2 0 3 2-2 0-3-1-3-2Z"/>
  <path style="opacity:1" fill="#8d8d8d" d="M106 438c1-1 2 0 3 2-2 0-3-1-3-2Z"/>
  <path style="opacity:1" fill="#787878" d="M684 438c1-1 2 0 3 2-2 0-3-1-3-2Z"/>
  <path style="opacity:1" fill="#929292" d="M1361 439c1-1 2 0 3 2-2 0-3-1-3-2Z"/>
  <path style="opacity:1" fill="#7e7e7e" d="m689 442 4 3-4-3Z"/>
  <path style="opacity:1" fill="#828282" d="M1366 442c1-1 2 0 3 2-2 0-3-1-3-2Z"/>
  <path style="opacity:1" fill="#838383" d="M114 443c1-1 2 0 3 2-2 0-3-1-3-2Z"/>
  <path style="opacity:1" fill="#818181" d="M1369 444c1-1 2 0 3 2-2 0-3-1-3-2Z"/>
  <path style="opacity:1" fill="#898989" d="M870 449c1-1 2 0 3 2-2 0-3-1-3-2Z"/>
  <path style="opacity:1" fill="#848484" d="M873 451c1-1 2 0 3 2-2 0-3-1-3-2Z"/>
  <path style="opacity:1" fill="#787878" d="M1382 454c1-1 2 0 3 2-2 0-3-1-3-2Z"/>
  <path style="opacity:1" fill="#888" d="M889 461c1-1 2 0 3 2-2 0-3-1-3-2Z"/>
  <path style="opacity:1" fill="#838383" d="M892 463c1-1 2 0 3 2-2 0-3-1-3-2Z"/>
  <path style="opacity:1" fill="#767676" d="M803 471h-4c1-3 2-3 4 0Z"/>
  <path style="opacity:1" fill="#737373" d="m1491 480-1-13-2 1c0-2 2-3 4-2l-1 14Z"/>
  <path style="opacity:1" fill="#5a5a5a" d="m1488 468-5 4c1-3 2-4 5-4Z"/>
  <path style="opacity:1" fill="#8f8f8f" d="m722 476 5 2c-3 1-4 0-5-2Z"/>
  <path style="opacity:1" fill="#747474" d="m268 485-3 2c0-2 1-3 3-2Z"/>
  <path style="opacity:1" fill="#939393" d="M20 489c1 0 2 1 2 3-2-1-3-2-2-3Z"/>
  <path style="opacity:1" fill="#777" d="M29 502c1 0 2 1 2 3-2-1-3-2-2-3Z"/>
  <path style="opacity:1" fill="#7a7a7a" d="m1469 511-2 3c-1-2 0-3 2-3Z"/>
  <path style="opacity:1" fill="#919191" d="m253 516-2 3c-1-2 0-3 2-3Z"/>
  <path style="opacity:1" fill="#797979" d="m609 516 3 4-3-4Z"/>
  <path style="opacity:1" fill="#7f7f7f" d="m780 516-2 3c-1-2 0-3 2-3Z"/>
  <path style="opacity:1" fill="#8d8d8d" d="M1242 516c1 0 2 1 2 3-2-1-3-2-2-3Z"/>
  <path style="opacity:1" fill="#797979" d="m249 522-2 3c-1-2 0-3 2-3Z"/>
  <path style="opacity:1" fill="#777" d="M243 529c-1 3-3 5-6 6 1-3 3-5 6-6Z"/>
  <path style="opacity:1" fill="#909090" d="M1245 538c2 0 3 1 5 4-3-1-4-2-5-4Z"/>
  <path style="opacity:1" fill="#7a7a7a" d="m232 539-3 2c0-2 1-3 3-2Z"/>
  <path style="opacity:1" fill="#999" d="M616 541c2 0 3 1 3 3l-3-3Z"/>
  <path style="opacity:1" fill="#767676" d="M1252 544c1-1 2 0 3 2-2 0-3-1-3-2Z"/>
  <path style="opacity:1" fill="#939393" d="M621 546c2 0 3 1 5 4-3-1-4-2-5-4Z"/>
  <path style="opacity:1" fill="#818181" d="M1256 547c1-1 2 0 3 2-2 0-3-1-3-2Zm3 2c1-1 2 0 3 2-2 0-3-1-3-2Z"/>
  <path style="opacity:1" fill="#939393" d="M1262 551c1-1 2 0 3 2-2 0-3-1-3-2Z"/>
  <path style="opacity:1" fill="#727272" d="M54 552c1-1 2 0 3 2-2 0-3-1-3-2Z"/>
  <path style="opacity:1" fill="#828282" d="M629 553c1-1 2 0 3 2-2 0-3-1-3-2Z"/>
  <path style="opacity:1" fill="#959595" d="M1267 554c1-1 2 0 3 2-2 0-3-1-3-2Z"/>
  <path style="opacity:1" fill="#8a8a8a" d="M58 555c1-1 2 0 3 2-2 0-3-1-3-2Z"/>
  <path style="opacity:1" fill="#878787" d="M633 556c1-1 2 0 3 2-2 0-3-1-3-2Z"/>
  <path style="opacity:1" fill="#828282" d="M61 557c1-1 2 0 3 2-2 0-3-1-3-2Z"/>
  <path style="opacity:1" fill="#929292" d="M64 559c1-1 2 0 3 2-2 0-3-1-3-2Z"/>
</svg>
