<svg
                  viewBox="0 0 2419.3459 243.68213"
                  xmlns="http://www.w3.org/2000/svg"
                  xmlns:svg="http://www.w3.org/2000/svg">
                  <g
                    transform="translate(1050.8215,25.103575)">
                    <path
                      style="fill:#FFFFFF;stroke-width:0.215072"
                      d="m -1050.7668,99.266275 0.054,-119.311175 0.5264,-1.069751 c 0.6715,-1.364436 1.9861,-2.679071 3.3505,-3.350493 l 1.0698,-0.526411 29.7337,-0.05601 29.73367,-0.05601 v 7.207151 7.207151 h -25.05587 -25.0559 v 55.596104 55.596109 h 25.0559 25.05587 v 7.20491 7.20492 h -25.05587 -25.0559 v 51.83234 51.83234 h -7.2055 -7.2055 z m 85.27927,118.985605 c -2.0225,-0.7429 -3.6296,-2.40046 -4.3312,-4.46728 -0.319,-0.93972 -0.3493,-6.06336 -0.3493,-58.9835 V 96.846715 h 7.2049 7.20491 v 53.660465 53.66045 h 2.52709 2.5271 l 15.32388,-8.84539 15.32387,-8.84648 V 141.66124 96.846715 h 7.20491 7.20491 v 60.865375 60.86536 h -7.20079 -7.2008 l -0.0579,-4.71872 -0.0579,-4.71872 -8.17274,4.71799 -8.17273,4.71797 -14.08722,-0.0144 c -11.38063,-0.0116 -14.24159,-0.0711 -14.89099,-0.30968 z m 80.652,0 c -2.02254,-0.7429 -3.62959,-2.40046 -4.33119,-4.46728 -0.31899,-0.93972 -0.34934,-6.06336 -0.34934,-58.9835 V 96.846715 h 7.20491 7.20491 v 53.660465 53.66045 h 25.05589 25.05588 v 7.20491 7.20491 l -29.51863,-0.0153 c -24.46155,-0.0125 -29.65633,-0.0657 -30.32243,-0.31041 z m 80.65198,0 c -2.02253,-0.7429 -3.6296,-2.40046 -4.33118,-4.46728 -0.319,-0.93972 -0.34934,-6.06336 -0.34934,-58.9835 V 96.846715 h 7.20491 7.20491 v 53.660465 53.66045 h 25.05588 25.05589 v 7.20491 7.20491 l -29.51863,-0.0153 c -24.46155,-0.0125 -29.65634,-0.0657 -30.32244,-0.31041 z m 188.93743,-118.985605 0.0543,-119.311175 0.52641,-1.069751 c 0.67143,-1.364436 1.98606,-2.679071 3.3505,-3.350493 l 1.06974,-0.526411 h 27.20661 27.2066 l 1.06975,0.526411 c 1.36443,0.671422 2.67906,1.986057 3.3505,3.350493 l 0.52641,1.069751 0.0543,119.311175 0.0543,119.311175 h -7.20549 -7.20549 v -51.83234 -51.83234 h -17.85097 -17.85098 v 51.83234 51.83234 h -7.20549 -7.20549 z m 50.05858,-54.35944 v -55.596104 h -17.85097 -17.85098 v 55.596104 55.596105 h 17.85098 17.85097 z m 35.22074,173.345045 c -2.02253,-0.7429 -3.62959,-2.40046 -4.33118,-4.46728 -0.31899,-0.93972 -0.34934,-6.06336 -0.34934,-58.9835 V 96.846715 h 7.20491 7.20491 v 53.660465 53.66045 h 2.5271 2.52709 l 15.32388,-8.84539 15.32388,-8.84538 V 141.66234 96.847812 h 7.20491 7.20491 v 60.865368 60.86537 h -7.20081 -7.20078 l -0.0579,-4.71872 -0.0579,-4.71872 -8.17273,4.71799 -8.17274,4.71797 -14.08721,-0.0144 c -11.38064,-0.0116 -14.24166,-0.0712 -14.89103,-0.30969 z m 101.13488,-41.50592 v -41.8315 h -12.58171 -12.58171 v -7.20491 -7.20491 h 12.58171 12.58171 V 108.67568 96.846715 h 7.20491 7.20492 v 11.828965 11.82896 h 12.47417 12.47417 v 7.20491 7.20491 h -12.47417 -12.47417 v 41.8315 41.83149 h -7.20492 -7.20491 z m 60.1691,41.50721 c -2.02553,-0.74725 -3.62984,-2.40246 -4.33119,-4.46857 -0.31882,-0.93922 -0.34934,-5.84714 -0.34934,-56.1795 v -55.15037 l 0.44937,-1.20103 c 0.62281,-1.664615 2.27484,-3.328016 3.91455,-3.941513 l 1.24408,-0.465472 h 26.65279 26.6528 l 1.24408,0.465472 c 1.64122,0.61406 3.2917,2.276748 3.91577,3.944773 l 0.4506,1.2043 -0.055,55.531 -0.055,55.531 -0.53254,1.07536 c -0.67898,1.37104 -1.96771,2.65978 -3.33875,3.33876 l -1.07536,0.53254 -26.99153,0.0399 c -22.47952,0.0332 -27.12591,-0.01 -27.79534,-0.25664 z m 45.43124,-60.54108 v -46.45555 h -17.85098 -17.85097 v 46.45555 46.45554 h 17.85097 17.85098 z m 30.54022,0 V 96.846715 h 7.20491 7.20491 v 7.201995 7.20199 l 22.52879,0.0567 22.52878,0.0567 1.06975,0.52641 c 1.36444,0.67142 2.67907,1.98606 3.3505,3.35049 l 0.52641,1.06975 0.0551,51.13336 0.0551,51.13336 h -7.20622 -7.20625 v -46.45554 -46.45555 h -5.26926 -5.26926 v 46.45555 46.45554 h -7.20491 -7.20491 v -46.45554 -46.45555 h -5.3768 -5.3768 v 46.45555 46.45554 h -7.20491 -7.20491 z m 80.70392,24.14183 0.0556,-36.72354 0.52641,-1.06975 c 0.67143,-1.36444 1.98606,-2.67908 3.3505,-3.3505 l 1.06974,-0.52641 22.52879,-0.0567 22.52879,-0.0567 v -10.85819 -10.85821 h -17.85097 -17.85098 v 7.20491 7.20491 h -7.20491 -7.20491 v -14.41206 -14.41207 l 29.7337,0.056 29.7337,0.056 1.06975,0.52641 c 1.36443,0.67142 2.67906,1.98606 3.35049,3.3505 l 0.52641,1.06975 0.055,54.78958 0.055,54.78958 h -7.20407 -7.20409 l -0.0558,-10.30599 -0.0558,-10.30601 -17.85097,10.30571 -17.85097,10.30573 h -7.15297 -7.15297 l 0.0556,-36.72353 z m 32.32323,3.68459 17.7366,-10.24131 v -10.4056 -10.40559 h -17.85097 -17.85098 v 20.64691 c 0,11.3558 0.0515,20.64691 0.11438,20.64691 0.0629,0 8.09584,-4.60859 17.85097,-10.24132 z m 73.44024,-8.79255 v -41.8315 h -12.58171 -12.58171 v -7.20491 -7.20491 h 12.58171 12.58171 V 108.67568 96.846715 h 7.204911 7.20491 v 11.828965 11.82896 h 12.47417 12.47418 v 7.20491 7.20491 h -12.47418 -12.47417 v 41.8315 41.83149 h -7.20491 -7.204911 z m 80.651984,-4.62405 v -46.45555 h 7.20491 7.204911 v 46.45555 46.45554 h -7.204911 -7.20491 z m 59.954019,46.13126 c -2.049077,-0.75596 -3.668848,-2.44419 -4.344281,-4.52787 -0.312715,-0.96477 -0.33904,-6.14764 -0.286519,-56.44336 l 0.05781,-55.38103 0.52641,-1.06975 c 0.671433,-1.364445 1.98606,-2.679076 3.350498,-3.350499 l 1.069747,-0.52641 h 27.206603 27.206603 l 1.044218,0.514052 c 1.388139,0.683353 3.361682,2.647957 3.788965,3.771767 0.145282,0.38214 0.221008,7.13485 0.221008,19.70871 v 19.12741 h -7.20491 -7.204911 V 125.66636 111.25654 H 61.962302 44.111329 v 46.45555 46.45554 h 17.850973 17.850973 v -14.30228 -14.30229 h 7.20833 7.208352 l -0.05721,18.9801 -0.05719,18.9801 -0.52641,1.06975 c -0.671433,1.36444 -1.98606,2.67906 -3.350498,3.3505 l -1.069747,0.52641 -26.991531,0.0399 c -22.479515,0.0332 -27.125908,-0.01 -27.795341,-0.25664 z M 223.26627,96.739179 v -121.83827 h 7.1454 7.14538 l 25.11423,6.720999 25.11424,6.720999 V 96.739179 205.13546 l -25.11424,6.72099 -25.11423,6.721 h -7.14538 -7.1454 z m 31.83844,98.927021 c 9.50356,-2.54658 17.50288,-4.68629 17.77626,-4.75492 l 0.49707,-0.12474 V 96.739179 2.6918252 l -0.49707,-0.1247568 c -0.27338,-0.068617 -8.2727,-2.20832022 -17.77626,-4.7548993 -9.50356,-2.5465781 -17.31282,-4.6301424 -17.35392,-4.6301424 -0.0411,0 -0.0747,46.6007183 -0.0747,103.5571523 0,56.956441 0.0336,103.557161 0.0747,103.557161 0.0411,0 7.85036,-2.08358 17.35392,-4.63014 z m 53.49407,22.58568 c -2.02253,-0.7429 -3.62959,-2.40046 -4.33118,-4.46728 -0.319,-0.93972 -0.34934,-6.06336 -0.34934,-58.9835 V 96.846715 h 7.20491 7.20491 v 53.660465 53.66045 h 2.5271 2.52709 l 15.32388,-8.84539 15.32388,-8.84538 V 141.66234 96.847812 h 7.20491 7.20491 v 60.865368 60.86537 h -7.20081 -7.20078 l -0.0579,-4.71872 -0.0579,-4.71872 -8.17274,4.71799 -8.17273,4.71797 -14.08721,-0.0144 c -11.38064,-0.0116 -14.24166,-0.0712 -14.89103,-0.30969 z m 75.97146,-60.53979 V 96.846715 h 7.20337 7.20336 l 0.0553,14.069745 0.0553,14.06974 17.85097,-10.31211 17.85098,-10.31211 4.62404,0.0599 c 4.40861,0.0571 4.67388,0.0844 5.6938,0.58631 1.36444,0.67142 2.67906,1.98605 3.3505,3.35049 l 0.52641,1.06975 0.055,54.57451 0.055,54.57451 h -7.20616 -7.20616 v -47.74597 c 0,-26.26029 -0.046,-47.74598 -0.10214,-47.74598 -0.0562,0 -8.08909,4.61243 -17.85097,10.24984 l -17.74883,10.24985 v 37.49613 37.49613 h -7.20492 -7.20491 z m 85.33251,60.54108 c -1.2472,-0.46013 -2.67061,-1.53344 -3.35725,-2.53155 -1.332,-1.93623 -1.32327,-1.84071 -1.32327,-14.46497 v -11.49884 h 7.20491 7.20491 v 7.20491 7.20491 h 17.85097 17.85098 v -17.63298 -17.63298 l -22.52879,-0.0567 -22.52879,-0.0567 -1.06975,-0.52641 c -1.36443,-0.67142 -2.67906,-1.98606 -3.35049,-3.35049 l -0.52641,-1.06975 v -27.20661 -27.2066 l 0.52641,-1.06975 c 0.67143,-1.36444 1.98606,-2.67907 3.35049,-3.35049 l 1.06975,-0.52642 22.52879,-0.0567 22.52879,-0.0567 v -3.76084 -3.760845 h 7.20607 7.20607 l -0.0549,58.338275 -0.0549,58.33827 -0.52641,1.06975 c -0.67143,1.36444 -1.98606,2.67906 -3.3505,3.3505 l -1.06974,0.52641 -26.99153,0.0399 c -22.47952,0.0332 -27.12591,-0.01 -27.79535,-0.25664 z M 515.334,136.63503 v -17.85097 h -17.85098 -17.85097 v 17.85097 17.85098 h 17.85097 17.85098 z m 50.1348,80.49069 c -0.47105,-0.79846 -5.07241,-8.75881 -10.22525,-17.68967 l -9.36882,-16.23793 v -14.3008 -14.3008 l 7.53916,-28.17592 c 4.14654,-15.49675 7.63821,-28.49046 7.75928,-28.874901 l 0.2201,-0.698984 h 17.40416 17.40414 v 2.38525 2.385265 l 7.09738,26.49005 7.09737,26.49005 v 7.14836 7.14835 l -25.05479,0.0547 -25.05476,0.0547 10.14875,17.58213 10.14875,17.58213 h 14.90604 14.90601 v 7.20491 7.20491 h -22.03526 -22.03529 l -0.85646,-1.45173 z m 26.6347,-62.80102 c -0.006,-0.0887 -2.59721,-9.79115 -5.7579,-21.56096 l -5.74675,-21.39966 h -2.46384 -2.46384 l -5.74675,21.39966 c -3.16069,11.76981 -5.75177,21.47225 -5.7579,21.56096 -0.006,0.0887 6.27967,0.16131 13.96849,0.16131 7.68882,0 13.97464,-0.0726 13.96849,-0.16131 z m 39.10323,63.92847 c -2.02553,-0.74725 -3.62984,-2.40246 -4.33119,-4.46857 -0.31882,-0.93922 -0.34934,-5.84714 -0.34934,-56.1795 v -55.15037 l 0.44937,-1.20103 c 0.62281,-1.664615 2.27484,-3.328016 3.91455,-3.941513 l 1.24408,-0.465472 h 26.6528 26.65279 l 1.24408,0.465472 c 1.64122,0.61406 3.2917,2.276748 3.91577,3.944773 l 0.4506,1.2043 -0.055,55.531 -0.055,55.531 -0.53254,1.07536 c -0.67898,1.37104 -1.96771,2.65978 -3.33875,3.33876 l -1.07536,0.53254 -26.99153,0.0399 c -22.47952,0.0332 -27.12591,-0.01 -27.79534,-0.25664 z m 45.43124,-60.54108 V 111.25654 H 658.787 640.93602 v 46.45555 46.45554 h 17.85098 17.85097 z m 30.54022,0 V 96.846715 h 7.20336 7.20336 l 0.0553,14.069745 0.0553,14.06974 17.85098,-10.31211 17.85097,-10.31211 4.62405,0.0599 c 4.40861,0.0571 4.67388,0.0844 5.69379,0.58631 1.36444,0.67142 2.67907,1.98605 3.3505,3.35049 l 0.52641,1.06975 0.055,54.57451 0.055,54.57451 h -7.20616 -7.20616 v -47.74597 c 0,-26.26029 -0.046,-47.74598 -0.10213,-47.74598 -0.0562,0 -8.0891,4.61243 -17.85098,10.24984 l -17.74883,10.24985 v 37.49613 37.49613 h -7.20491 -7.20491 z m 198.24529,60.54108 c -1.2472,-0.46013 -2.67062,-1.53344 -3.35725,-2.53155 -1.41475,-2.0565 -1.32328,0.43752 -1.32328,-36.07971 v -33.11357 h 7.20491 7.20491 v 28.81965 28.81964 h 17.85098 17.85097 v -28.87552 -28.87553 l -25.05724,-42.58213 -25.05724,-42.582146 0.0551,-40.648602 0.0551,-40.648602 0.52641,-1.069751 c 0.67143,-1.364436 1.98606,-2.679071 3.3505,-3.350493 l 1.06974,-0.526411 h 27.20661 27.2066 l 1.06975,0.526411 c 1.36443,0.671422 2.67906,1.986057 3.3505,3.350493 l 0.52641,1.069751 0.0558,33.497459 0.0558,33.497459 h -7.20691 -7.20691 V 18.130375 -10.689269 h -17.85099 -17.85098 v 28.875063 28.875064 l 25.05737,42.582598 25.05735,42.582604 -0.0552,40.6486 -0.0553,40.6486 -0.52641,1.06975 c -0.67144,1.36444 -1.98607,2.67906 -3.3505,3.3505 l -1.06975,0.52641 -26.99153,0.0399 c -22.47952,0.0332 -27.12591,-0.01 -27.79534,-0.25664 z m 95.56602,-1.12745 c -0.471,-0.79846 -5.07239,-8.75881 -10.22523,-17.68967 l -9.36882,-16.23793 v -14.3008 -14.3008 l 7.53916,-28.17592 c 4.14654,-15.49675 7.63821,-28.49046 7.75928,-28.874901 l 0.2201,-0.698984 h 17.40421 17.4041 v 2.38525 2.385265 l 7.0974,26.49005 7.0974,26.49005 v 7.14836 7.14835 l -25.0548,0.0547 -25.05481,0.0547 10.14871,17.58213 10.1488,17.58213 h 14.906 14.9061 v 7.20491 7.20491 h -22.0353 -22.0353 l -0.8565,-1.45173 z m 26.6347,-62.80102 c -0.01,-0.0887 -2.5972,-9.79115 -5.7579,-21.56096 l -5.7467,-21.39966 h -2.4639 -2.4638 l -5.7467,21.39966 c -3.1607,11.76981 -5.75183,21.47225 -5.75796,21.56096 -0.006,0.0887 6.27966,0.16131 13.96846,0.16131 7.6889,0 13.9747,-0.0726 13.9685,-0.16131 z m 34.4228,3.38739 V 96.846715 h 7.2049 7.2049 v 10.699025 10.69903 l 10.7006,-10.69903 10.7006,-10.699025 h 14.3553 14.3552 v 7.204915 7.20491 h -7.2591 -7.2593 l -17.7966,17.79769 -17.7967,17.79769 v 35.86277 35.86276 h -7.2049 -7.2049 z m 105.499,60.27572 c -0.082,-0.3243 -5.7054,-24.4956 -12.4976,-53.714 l -12.3495,-53.12436 v -7.15136 -7.151375 h 7.1832 7.1832 l 0.751,3.172315 c 0.4132,1.74477 4.4107,18.92365 8.8836,38.17528 4.4731,19.25163 8.1899,35.00296 8.2598,35.00296 0.07,0 3.7868,-15.75133 8.2599,-35.00296 4.4728,-19.25163 8.4704,-36.43051 8.8835,-38.17528 l 0.7511,-3.172315 h 7.1831 7.1832 v 7.151375 7.15136 l -12.3494,53.12436 c -6.7922,29.2184 -12.4161,53.3897 -12.4976,53.714 l -0.148,0.58964 h -7.2658 -7.2657 z m 75.3995,-0.86209 c -0.471,-0.79846 -5.0725,-8.75881 -10.2252,-17.68967 l -9.3689,-16.23793 v -14.3008 -14.3008 l 7.5391,-28.17592 c 4.1466,-15.49675 7.6383,-28.49046 7.7594,-28.874901 l 0.22,-0.698984 h 17.4042 17.4041 v 2.38525 2.385265 l 7.0974,26.49005 7.0973,26.49005 v 7.14836 7.14835 l -25.0548,0.0547 -25.0548,0.0547 10.1488,17.58213 10.1489,17.58213 h 14.906 14.9059 v 7.20491 7.20491 h -22.0352 -22.0354 l -0.8564,-1.45173 z m 26.6347,-62.80102 c -0.01,-0.0887 -2.5972,-9.79115 -5.7579,-21.56096 l -5.7467,-21.39966 h -2.4639 -2.4638 l -5.7468,21.39966 c -3.1607,11.76981 -5.7516,21.47225 -5.7579,21.56096 -0.01,0.0887 6.2797,0.16131 13.9685,0.16131 7.6888,0 13.9748,-0.0726 13.9685,-0.16131 z m 34.4227,3.38739 V 96.846715 h 7.2049 7.2049 v 10.699025 10.69903 l 10.7007,-10.69903 10.7005,-10.699025 h 14.3554 14.3552 v 7.204915 7.20491 h -7.2591 -7.2593 l -17.7966,17.79769 -17.7968,17.79769 v 35.86277 35.86276 h -7.2049 -7.2049 z M -25.571986,104.05163 v -7.204915 h 7.20491 7.204911 v 7.204915 7.20491 h -7.204911 -7.20491 z"
                    />
                  </g>
                </svg>