<?xml version="1.0" encoding="UTF-8"?>
<!DOCTYPE svg PUBLIC "-//W3C//DTD SVG 1.1//EN" "http://www.w3.org/Graphics/SVG/1.1/DTD/svg11.dtd">
<svg xmlns="http://www.w3.org/2000/svg" version="1.1" width="162px" height="174px" style="shape-rendering:geometricPrecision; text-rendering:geometricPrecision; image-rendering:optimizeQuality; fill-rule:evenodd; clip-rule:evenodd" xmlns:xlink="http://www.w3.org/1999/xlink">
<g><path style="opacity:1" fill="#fdfdfd" d="M -0.5,-0.5 C 17.8333,-0.5 36.1667,-0.5 54.5,-0.5C 53.2092,3.6011 53.2092,7.6011 54.5,11.5C 54.6716,12.4916 54.3382,13.1583 53.5,13.5C 49.1667,13.5 44.8333,13.5 40.5,13.5C 40.5,17.5 40.5,21.5 40.5,25.5C 44.8333,25.5 49.1667,25.5 53.5,25.5C 53.5,29.8333 53.5,34.1667 53.5,38.5C 48.8333,38.5 44.1667,38.5 39.5,38.5C 39.5,34.5 39.5,30.5 39.5,26.5C 35.5633,26.2065 31.73,26.5399 28,27.5C 27.1901,31.3575 27.3567,35.0242 28.5,38.5C 28.1583,39.3382 27.4916,39.6716 26.5,39.5C 22.1667,39.5 17.8333,39.5 13.5,39.5C 13.1736,48.3494 13.507,57.0161 14.5,65.5C 14.5,66.8333 13.8333,67.5 12.5,67.5C 8.26726,66.2057 3.93393,66.2057 -0.5,67.5C -0.5,44.8333 -0.5,22.1667 -0.5,-0.5 Z"/></g>
<g><path style="opacity:1" fill="#fefefe" d="M 106.5,0.5 C 106.5,0.166667 106.5,-0.166667 106.5,-0.5C 124.833,-0.5 143.167,-0.5 161.5,-0.5C 161.5,21.5 161.5,43.5 161.5,65.5C 156.833,65.5 152.167,65.5 147.5,65.5C 147.5,57.1667 147.5,48.8333 147.5,40.5C 143.702,39.5166 139.702,39.1832 135.5,39.5C 135.819,34.6367 135.486,29.97 134.5,25.5C 129.833,25.5 125.167,25.5 120.5,25.5C 120.5,21.5 120.5,17.5 120.5,13.5C 116.167,13.5 111.833,13.5 107.5,13.5C 107.818,8.96775 107.485,4.63441 106.5,0.5 Z"/></g>
<g><path style="opacity:1" fill="#1b757d" d="M 54.5,-0.5 C 71.8333,-0.5 89.1667,-0.5 106.5,-0.5C 106.5,-0.166667 106.5,0.166667 106.5,0.5C 106.5,4.16667 106.5,7.83333 106.5,11.5C 102.167,11.5 97.8333,11.5 93.5,11.5C 80.5,11.5 67.5,11.5 54.5,11.5C 53.2092,7.6011 53.2092,3.6011 54.5,-0.5 Z"/></g>
<g><path style="opacity:1" fill="#eff0ee" d="M 54.5,11.5 C 67.5,11.5 80.5,11.5 93.5,11.5C 93.5,16.1667 93.5,20.8333 93.5,25.5C 89.1667,25.5 84.8333,25.5 80.5,25.5C 71.5,25.5 62.5,25.5 53.5,25.5C 53.5,21.5 53.5,17.5 53.5,13.5C 54.3382,13.1583 54.6716,12.4916 54.5,11.5 Z"/></g>
<g><path style="opacity:1" fill="#cbeee6" d="M 106.5,0.5 C 107.485,4.63441 107.818,8.96775 107.5,13.5C 107.5,17.5 107.5,21.5 107.5,25.5C 107.5,29.8333 107.5,34.1667 107.5,38.5C 102.833,38.5 98.1667,38.5 93.5,38.5C 93.5,34.1667 93.5,29.8333 93.5,25.5C 93.5,20.8333 93.5,16.1667 93.5,11.5C 97.8333,11.5 102.167,11.5 106.5,11.5C 106.5,7.83333 106.5,4.16667 106.5,0.5 Z"/></g>
<g><path style="opacity:1" fill="#17747b" d="M 53.5,13.5 C 53.5,17.5 53.5,21.5 53.5,25.5C 49.1667,25.5 44.8333,25.5 40.5,25.5C 40.5,21.5 40.5,17.5 40.5,13.5C 44.8333,13.5 49.1667,13.5 53.5,13.5 Z"/></g>
<g><path style="opacity:1" fill="#036f76" d="M 107.5,13.5 C 111.833,13.5 116.167,13.5 120.5,13.5C 120.5,17.5 120.5,21.5 120.5,25.5C 116.167,25.5 111.833,25.5 107.5,25.5C 107.5,21.5 107.5,17.5 107.5,13.5 Z"/></g>
<g><path style="opacity:1" fill="#45e4d0" d="M 53.5,25.5 C 62.5,25.5 71.5,25.5 80.5,25.5C 80.5,29.8333 80.5,34.1667 80.5,38.5C 71.5,38.5 62.5,38.5 53.5,38.5C 53.5,34.1667 53.5,29.8333 53.5,25.5 Z"/></g>
<g><path style="opacity:1" fill="#9defdd" d="M 80.5,25.5 C 84.8333,25.5 89.1667,25.5 93.5,25.5C 93.5,29.8333 93.5,34.1667 93.5,38.5C 89.1667,38.5 84.8333,38.5 80.5,38.5C 80.5,34.1667 80.5,29.8333 80.5,25.5 Z"/></g>
<g><path style="opacity:1" fill="#16c1b1" d="M 107.5,25.5 C 111.833,25.5 116.167,25.5 120.5,25.5C 120.5,29.8333 120.5,34.1667 120.5,38.5C 116.167,38.5 111.833,38.5 107.5,38.5C 107.5,34.1667 107.5,29.8333 107.5,25.5 Z"/></g>
<g><path style="opacity:1" fill="#085c4f" d="M 120.5,25.5 C 125.167,25.5 129.833,25.5 134.5,25.5C 134.5,29.8333 134.5,34.1667 134.5,38.5C 129.833,38.5 125.167,38.5 120.5,38.5C 120.5,34.1667 120.5,29.8333 120.5,25.5 Z"/></g>
<g><path style="opacity:1" fill="#247980" d="M 39.5,38.5 C 35.8333,38.5 32.1667,38.5 28.5,38.5C 27.3567,35.0242 27.1901,31.3575 28,27.5C 31.73,26.5399 35.5633,26.2065 39.5,26.5C 39.5,30.5 39.5,34.5 39.5,38.5 Z"/></g>
<g><path style="opacity:1" fill="#eff0ee" d="M 28.5,38.5 C 32.1667,38.5 35.8333,38.5 39.5,38.5C 39.5,47.5 39.5,56.5 39.5,65.5C 35.1667,65.5 30.8333,65.5 26.5,65.5C 26.5,56.8333 26.5,48.1667 26.5,39.5C 27.4916,39.6716 28.1583,39.3382 28.5,38.5 Z"/></g>
<g><path style="opacity:1" fill="#45e4d0" d="M 39.5,38.5 C 44.1667,38.5 48.8333,38.5 53.5,38.5C 53.5,43.1667 53.5,47.8333 53.5,52.5C 53.5,56.8333 53.5,61.1667 53.5,65.5C 48.8333,65.5 44.1667,65.5 39.5,65.5C 39.5,56.5 39.5,47.5 39.5,38.5 Z"/></g>
<g><path style="opacity:1" fill="#9defdd" d="M 53.5,38.5 C 62.5,38.5 71.5,38.5 80.5,38.5C 80.5,43.1667 80.5,47.8333 80.5,52.5C 75.8333,52.5 71.1667,52.5 66.5,52.5C 62.1667,52.5 57.8333,52.5 53.5,52.5C 53.5,47.8333 53.5,43.1667 53.5,38.5 Z"/></g>
<g><path style="opacity:1" fill="#cdf0e7" d="M 80.5,38.5 C 84.8333,38.5 89.1667,38.5 93.5,38.5C 93.5,43.1667 93.5,47.8333 93.5,52.5C 89.1667,52.5 84.8333,52.5 80.5,52.5C 80.5,47.8333 80.5,43.1667 80.5,38.5 Z"/></g>
<g><path style="opacity:1" fill="#9defdd" d="M 93.5,38.5 C 98.1667,38.5 102.833,38.5 107.5,38.5C 107.5,43.1667 107.5,47.8333 107.5,52.5C 102.833,52.5 98.1667,52.5 93.5,52.5C 93.5,47.8333 93.5,43.1667 93.5,38.5 Z"/></g>
<g><path style="opacity:1" fill="#45e4d0" d="M 107.5,38.5 C 111.833,38.5 116.167,38.5 120.5,38.5C 120.5,43.1667 120.5,47.8333 120.5,52.5C 125.167,52.5 129.833,52.5 134.5,52.5C 134.5,56.8333 134.5,61.1667 134.5,65.5C 129.833,65.5 125.167,65.5 120.5,65.5C 116.167,65.5 111.833,65.5 107.5,65.5C 107.5,61.1667 107.5,56.8333 107.5,52.5C 107.5,47.8333 107.5,43.1667 107.5,38.5 Z"/></g>
<g><path style="opacity:1" fill="#16c1b1" d="M 120.5,38.5 C 125.167,38.5 129.833,38.5 134.5,38.5C 134.5,39.1667 134.5,39.8333 134.5,40.5C 134.5,44.5 134.5,48.5 134.5,52.5C 129.833,52.5 125.167,52.5 120.5,52.5C 120.5,47.8333 120.5,43.1667 120.5,38.5 Z"/></g>
<g><path style="opacity:1" fill="#17747b" d="M 26.5,39.5 C 26.5,48.1667 26.5,56.8333 26.5,65.5C 22.5,65.5 18.5,65.5 14.5,65.5C 13.507,57.0161 13.1736,48.3494 13.5,39.5C 17.8333,39.5 22.1667,39.5 26.5,39.5 Z"/></g>
<g><path style="opacity:1" fill="#9faa9f" d="M 134.5,25.5 C 135.486,29.97 135.819,34.6367 135.5,39.5C 139.702,39.1832 143.702,39.5166 147.5,40.5C 143.167,40.5 138.833,40.5 134.5,40.5C 134.5,39.8333 134.5,39.1667 134.5,38.5C 134.5,34.1667 134.5,29.8333 134.5,25.5 Z"/></g>
<g><path style="opacity:1" fill="#085c4f" d="M 134.5,40.5 C 138.833,40.5 143.167,40.5 147.5,40.5C 147.5,48.8333 147.5,57.1667 147.5,65.5C 143.167,65.5 138.833,65.5 134.5,65.5C 134.5,61.1667 134.5,56.8333 134.5,52.5C 134.5,48.5 134.5,44.5 134.5,40.5 Z"/></g>
<g><path style="opacity:1" fill="#eff0ee" d="M 53.5,52.5 C 57.8333,52.5 62.1667,52.5 66.5,52.5C 66.5,56.8333 66.5,61.1667 66.5,65.5C 62.1667,65.5 57.8333,65.5 53.5,65.5C 53.5,61.1667 53.5,56.8333 53.5,52.5 Z"/></g>
<g><path style="opacity:1" fill="#cdf0e7" d="M 66.5,52.5 C 71.1667,52.5 75.8333,52.5 80.5,52.5C 80.5,56.8333 80.5,61.1667 80.5,65.5C 75.8333,65.5 71.1667,65.5 66.5,65.5C 66.5,61.1667 66.5,56.8333 66.5,52.5 Z"/></g>
<g><path style="opacity:1" fill="#eff0ee" d="M 80.5,52.5 C 84.8333,52.5 89.1667,52.5 93.5,52.5C 93.5,56.8333 93.5,61.1667 93.5,65.5C 89.1667,65.5 84.8333,65.5 80.5,65.5C 80.5,61.1667 80.5,56.8333 80.5,52.5 Z"/></g>
<g><path style="opacity:1" fill="#cdf0e7" d="M 93.5,52.5 C 98.1667,52.5 102.833,52.5 107.5,52.5C 107.5,56.8333 107.5,61.1667 107.5,65.5C 102.833,65.5 98.1667,65.5 93.5,65.5C 93.5,61.1667 93.5,56.8333 93.5,52.5 Z"/></g>
<g><path style="opacity:1" fill="#eff0ee" d="M 14.5,65.5 C 18.5,65.5 22.5,65.5 26.5,65.5C 26.5,74.5 26.5,83.5 26.5,92.5C 30.8333,92.5 35.1667,92.5 39.5,92.5C 39.5,97.1667 39.5,101.833 39.5,106.5C 35.1667,106.5 30.8333,106.5 26.5,106.5C 21.8333,106.5 17.1667,106.5 12.5,106.5C 12.5,93.5 12.5,80.5 12.5,67.5C 13.8333,67.5 14.5,66.8333 14.5,65.5 Z"/></g>
<g><path style="opacity:1" fill="#45e4d0" d="M 26.5,65.5 C 30.8333,65.5 35.1667,65.5 39.5,65.5C 39.5,70.1667 39.5,74.8333 39.5,79.5C 39.5,83.8333 39.5,88.1667 39.5,92.5C 35.1667,92.5 30.8333,92.5 26.5,92.5C 26.5,83.5 26.5,74.5 26.5,65.5 Z"/></g>
<g><path style="opacity:1" fill="#eff0ee" d="M 39.5,65.5 C 44.1667,65.5 48.8333,65.5 53.5,65.5C 53.5,70.1667 53.5,74.8333 53.5,79.5C 48.8333,79.5 44.1667,79.5 39.5,79.5C 39.5,74.8333 39.5,70.1667 39.5,65.5 Z"/></g>
<g><path style="opacity:1" fill="#45e4d0" d="M 53.5,65.5 C 57.8333,65.5 62.1667,65.5 66.5,65.5C 71.1667,65.5 75.8333,65.5 80.5,65.5C 80.5,70.1667 80.5,74.8333 80.5,79.5C 75.8333,79.5 71.1667,79.5 66.5,79.5C 66.5,83.8333 66.5,88.1667 66.5,92.5C 62.1667,92.5 57.8333,92.5 53.5,92.5C 53.5,88.1667 53.5,83.8333 53.5,79.5C 53.5,74.8333 53.5,70.1667 53.5,65.5 Z"/></g>
<g><path style="opacity:1" fill="#9defdd" d="M 80.5,65.5 C 84.8333,65.5 89.1667,65.5 93.5,65.5C 98.1667,65.5 102.833,65.5 107.5,65.5C 107.5,70.1667 107.5,74.8333 107.5,79.5C 107.5,83.8333 107.5,88.1667 107.5,92.5C 102.833,92.5 98.1667,92.5 93.5,92.5C 93.5,97.1667 93.5,101.833 93.5,106.5C 80.1667,106.5 66.8333,106.5 53.5,106.5C 53.5,101.833 53.5,97.1667 53.5,92.5C 57.8333,92.5 62.1667,92.5 66.5,92.5C 66.5,88.1667 66.5,83.8333 66.5,79.5C 71.1667,79.5 75.8333,79.5 80.5,79.5C 80.5,74.8333 80.5,70.1667 80.5,65.5 Z"/></g>
<g><path style="opacity:1" fill="#11a7a3" d="M 107.5,65.5 C 111.833,65.5 116.167,65.5 120.5,65.5C 120.5,70.1667 120.5,74.8333 120.5,79.5C 116.167,79.5 111.833,79.5 107.5,79.5C 107.5,74.8333 107.5,70.1667 107.5,65.5 Z"/></g>
<g><path style="opacity:1" fill="#16c1b1" d="M 120.5,65.5 C 125.167,65.5 129.833,65.5 134.5,65.5C 134.5,74.5 134.5,83.5 134.5,92.5C 129.833,92.5 125.167,92.5 120.5,92.5C 120.5,88.1667 120.5,83.8333 120.5,79.5C 120.5,74.8333 120.5,70.1667 120.5,65.5 Z"/></g>
<g><path style="opacity:1" fill="#11a7a3" d="M 134.5,65.5 C 138.833,65.5 143.167,65.5 147.5,65.5C 147.5,65.8333 147.5,66.1667 147.5,66.5C 147.5,79.8333 147.5,93.1667 147.5,106.5C 143.167,106.5 138.833,106.5 134.5,106.5C 129.833,106.5 125.167,106.5 120.5,106.5C 120.5,101.833 120.5,97.1667 120.5,92.5C 125.167,92.5 129.833,92.5 134.5,92.5C 134.5,83.5 134.5,74.5 134.5,65.5 Z"/></g>
<g><path style="opacity:1" fill="#085c4f" d="M 147.5,66.5 C 151.833,66.5 156.167,66.5 160.5,66.5C 160.5,84.1667 160.5,101.833 160.5,119.5C 156.167,119.5 151.833,119.5 147.5,119.5C 147.5,115.167 147.5,110.833 147.5,106.5C 147.5,93.1667 147.5,79.8333 147.5,66.5 Z"/></g>
<g><path style="opacity:1" fill="#7faaa4" d="M 147.5,66.5 C 147.5,66.1667 147.5,65.8333 147.5,65.5C 152.167,65.5 156.833,65.5 161.5,65.5C 161.5,83.5 161.5,101.5 161.5,119.5C 161.167,119.5 160.833,119.5 160.5,119.5C 160.5,101.833 160.5,84.1667 160.5,66.5C 156.167,66.5 151.833,66.5 147.5,66.5 Z"/></g>
<g><path style="opacity:1" fill="#1a757d" d="M 12.5,67.5 C 12.5,80.5 12.5,93.5 12.5,106.5C 12.5,110.833 12.5,115.167 12.5,119.5C 8.16667,119.5 3.83333,119.5 -0.5,119.5C -0.5,102.167 -0.5,84.8333 -0.5,67.5C 3.93393,66.2057 8.26726,66.2057 12.5,67.5 Z"/></g>
<g><path style="opacity:1" fill="#cdf0e7" d="M 39.5,79.5 C 44.1667,79.5 48.8333,79.5 53.5,79.5C 53.5,83.8333 53.5,88.1667 53.5,92.5C 48.8333,92.5 44.1667,92.5 39.5,92.5C 39.5,88.1667 39.5,83.8333 39.5,79.5 Z"/></g>
<g><path style="opacity:1" fill="#148e96" d="M 107.5,79.5 C 111.833,79.5 116.167,79.5 120.5,79.5C 120.5,83.8333 120.5,88.1667 120.5,92.5C 120.5,97.1667 120.5,101.833 120.5,106.5C 116.167,106.5 111.833,106.5 107.5,106.5C 107.5,101.833 107.5,97.1667 107.5,92.5C 107.5,88.1667 107.5,83.8333 107.5,79.5 Z"/></g>
<g><path style="opacity:1" fill="#16c1b1" d="M 39.5,92.5 C 44.1667,92.5 48.8333,92.5 53.5,92.5C 53.5,97.1667 53.5,101.833 53.5,106.5C 48.8333,106.5 44.1667,106.5 39.5,106.5C 39.5,101.833 39.5,97.1667 39.5,92.5 Z"/></g>
<g><path style="opacity:1" fill="#45e4d0" d="M 107.5,92.5 C 107.5,97.1667 107.5,101.833 107.5,106.5C 102.833,106.5 98.1667,106.5 93.5,106.5C 93.5,101.833 93.5,97.1667 93.5,92.5C 98.1667,92.5 102.833,92.5 107.5,92.5 Z"/></g>
<g><path style="opacity:1" fill="#c6e8e0" d="M 12.5,106.5 C 17.1667,106.5 21.8333,106.5 26.5,106.5C 25.7051,110.785 25.3718,115.119 25.5,119.5C 21.5,119.5 17.5,119.5 13.5,119.5C 13.5,128.167 13.5,136.833 13.5,145.5C 12.507,137.016 12.1736,128.349 12.5,119.5C 12.5,115.167 12.5,110.833 12.5,106.5 Z"/></g>
<g><path style="opacity:1" fill="#45e4d0" d="M 26.5,106.5 C 30.8333,106.5 35.1667,106.5 39.5,106.5C 44.1667,106.5 48.8333,106.5 53.5,106.5C 53.5,110.833 53.5,115.167 53.5,119.5C 48.8333,119.5 44.1667,119.5 39.5,119.5C 39.5,124.167 39.5,128.833 39.5,133.5C 34.8333,133.5 30.1667,133.5 25.5,133.5C 25.5,128.833 25.5,124.167 25.5,119.5C 25.3718,115.119 25.7051,110.785 26.5,106.5 Z"/></g>
<g><path style="opacity:1" fill="#11a7a3" d="M 53.5,106.5 C 66.8333,106.5 80.1667,106.5 93.5,106.5C 98.1667,106.5 102.833,106.5 107.5,106.5C 107.5,110.833 107.5,115.167 107.5,119.5C 89.5,119.5 71.5,119.5 53.5,119.5C 53.5,115.167 53.5,110.833 53.5,106.5 Z"/></g>
<g><path style="opacity:1" fill="#16c1b1" d="M 107.5,106.5 C 111.833,106.5 116.167,106.5 120.5,106.5C 125.167,106.5 129.833,106.5 134.5,106.5C 134.5,110.833 134.5,115.167 134.5,119.5C 134.5,124.167 134.5,128.833 134.5,133.5C 129.833,133.5 125.167,133.5 120.5,133.5C 120.5,128.833 120.5,124.167 120.5,119.5C 116.167,119.5 111.833,119.5 107.5,119.5C 107.5,115.167 107.5,110.833 107.5,106.5 Z"/></g>
<g><path style="opacity:1" fill="#2b9198" d="M 134.5,106.5 C 138.833,106.5 143.167,106.5 147.5,106.5C 147.5,110.833 147.5,115.167 147.5,119.5C 147.826,128.349 147.493,137.016 146.5,145.5C 146.5,136.833 146.5,128.167 146.5,119.5C 142.5,119.5 138.5,119.5 134.5,119.5C 134.5,115.167 134.5,110.833 134.5,106.5 Z"/></g>
<g><path style="opacity:1" fill="#fefffe" d="M -0.5,119.5 C 3.83333,119.5 8.16667,119.5 12.5,119.5C 12.1736,128.349 12.507,137.016 13.5,145.5C 17.5,145.5 21.5,145.5 25.5,145.5C 26.1667,150.5 26.8333,155.5 27.5,160.5C 31.5,160.5 35.5,160.5 39.5,160.5C 39.8333,160.5 40.1667,160.5 40.5,160.5C 40.5,164.5 40.5,168.5 40.5,172.5C 40.5,172.833 40.5,173.167 40.5,173.5C 26.8333,173.5 13.1667,173.5 -0.5,173.5C -0.5,155.5 -0.5,137.5 -0.5,119.5 Z"/></g>
<g><path style="opacity:1" fill="#085c4f" d="M 25.5,119.5 C 25.5,124.167 25.5,128.833 25.5,133.5C 25.5,137.5 25.5,141.5 25.5,145.5C 21.5,145.5 17.5,145.5 13.5,145.5C 13.5,136.833 13.5,128.167 13.5,119.5C 17.5,119.5 21.5,119.5 25.5,119.5 Z"/></g>
<g><path style="opacity:1" fill="#11a7a3" d="M 53.5,119.5 C 53.5,128.5 53.5,137.5 53.5,146.5C 48.8333,146.5 44.1667,146.5 39.5,146.5C 39.5,142.167 39.5,137.833 39.5,133.5C 39.5,128.833 39.5,124.167 39.5,119.5C 44.1667,119.5 48.8333,119.5 53.5,119.5 Z"/></g>
<g><path style="opacity:1" fill="#16c1b1" d="M 53.5,119.5 C 71.5,119.5 89.5,119.5 107.5,119.5C 107.5,128.5 107.5,137.5 107.5,146.5C 98.5,146.5 89.5,146.5 80.5,146.5C 71.5,146.5 62.5,146.5 53.5,146.5C 53.5,137.5 53.5,128.5 53.5,119.5 Z"/></g>
<g><path style="opacity:1" fill="#11a7a3" d="M 107.5,119.5 C 111.833,119.5 116.167,119.5 120.5,119.5C 120.5,124.167 120.5,128.833 120.5,133.5C 120.5,137.833 120.5,142.167 120.5,146.5C 116.167,146.5 111.833,146.5 107.5,146.5C 107.5,137.5 107.5,128.5 107.5,119.5 Z"/></g>
<g><path style="opacity:1" fill="#085c4f" d="M 134.5,119.5 C 138.5,119.5 142.5,119.5 146.5,119.5C 146.5,128.167 146.5,136.833 146.5,145.5C 142.5,145.5 138.5,145.5 134.5,145.5C 134.5,141.5 134.5,137.5 134.5,133.5C 134.5,128.833 134.5,124.167 134.5,119.5 Z"/></g>
<g><path style="opacity:1" fill="#fefdfd" d="M 147.5,119.5 C 151.833,119.5 156.167,119.5 160.5,119.5C 160.833,119.5 161.167,119.5 161.5,119.5C 161.5,137.5 161.5,155.5 161.5,173.5C 147.833,173.5 134.167,173.5 120.5,173.5C 120.5,169.5 120.5,165.5 120.5,161.5C 120.5,161.167 120.5,160.833 120.5,160.5C 125.167,160.5 129.833,160.5 134.5,160.5C 134.5,155.833 134.5,151.167 134.5,146.5C 134.5,146.167 134.5,145.833 134.5,145.5C 138.5,145.5 142.5,145.5 146.5,145.5C 147.493,137.016 147.826,128.349 147.5,119.5 Z"/></g>
<g><path style="opacity:1" fill="#35d5ce" d="M 25.5,133.5 C 30.1667,133.5 34.8333,133.5 39.5,133.5C 39.5,137.833 39.5,142.167 39.5,146.5C 35.5,146.5 31.5,146.5 27.5,146.5C 27.5,151.167 27.5,155.833 27.5,160.5C 26.8333,155.5 26.1667,150.5 25.5,145.5C 25.5,141.5 25.5,137.5 25.5,133.5 Z"/></g>
<g><path style="opacity:1" fill="#9defdd" d="M 120.5,133.5 C 125.167,133.5 129.833,133.5 134.5,133.5C 134.5,137.5 134.5,141.5 134.5,145.5C 134.5,145.833 134.5,146.167 134.5,146.5C 129.833,146.5 125.167,146.5 120.5,146.5C 120.5,142.167 120.5,137.833 120.5,133.5 Z"/></g>
<g><path style="opacity:1" fill="#085c4f" d="M 39.5,146.5 C 39.5,151.167 39.5,155.833 39.5,160.5C 35.5,160.5 31.5,160.5 27.5,160.5C 27.5,155.833 27.5,151.167 27.5,146.5C 31.5,146.5 35.5,146.5 39.5,146.5 Z"/></g>
<g><path style="opacity:1" fill="#148e96" d="M 39.5,146.5 C 44.1667,146.5 48.8333,146.5 53.5,146.5C 53.7744,151.263 53.441,155.93 52.5,160.5C 48.5,160.5 44.5,160.5 40.5,160.5C 40.1667,160.5 39.8333,160.5 39.5,160.5C 39.5,155.833 39.5,151.167 39.5,146.5 Z"/></g>
<g><path style="opacity:1" fill="#45e4d0" d="M 53.5,146.5 C 62.5,146.5 71.5,146.5 80.5,146.5C 80.5,151.167 80.5,155.833 80.5,160.5C 71.1667,160.5 61.8333,160.5 52.5,160.5C 53.441,155.93 53.7744,151.263 53.5,146.5 Z"/></g>
<g><path style="opacity:1" fill="#9defdd" d="M 80.5,146.5 C 89.5,146.5 98.5,146.5 107.5,146.5C 107.5,151.167 107.5,155.833 107.5,160.5C 98.5,160.5 89.5,160.5 80.5,160.5C 80.5,155.833 80.5,151.167 80.5,146.5 Z"/></g>
<g><path style="opacity:1" fill="#16c1b1" d="M 107.5,146.5 C 111.833,146.5 116.167,146.5 120.5,146.5C 120.5,151.167 120.5,155.833 120.5,160.5C 116.167,160.5 111.833,160.5 107.5,160.5C 107.5,155.833 107.5,151.167 107.5,146.5 Z"/></g>
<g><path style="opacity:1" fill="#085c4f" d="M 120.5,146.5 C 125.167,146.5 129.833,146.5 134.5,146.5C 134.5,151.167 134.5,155.833 134.5,160.5C 129.833,160.5 125.167,160.5 120.5,160.5C 120.5,155.833 120.5,151.167 120.5,146.5 Z"/></g>
<g><path style="opacity:1" fill="#085c50" d="M 40.5,160.5 C 44.5,160.5 48.5,160.5 52.5,160.5C 61.8333,160.5 71.1667,160.5 80.5,160.5C 89.5,160.5 98.5,160.5 107.5,160.5C 111.833,160.5 116.167,160.5 120.5,160.5C 120.5,160.833 120.5,161.167 120.5,161.5C 119.518,164.962 119.185,168.629 119.5,172.5C 93.1667,172.5 66.8333,172.5 40.5,172.5C 40.5,168.5 40.5,164.5 40.5,160.5 Z"/></g>
<g><path style="opacity:1" fill="#7ca9a2" d="M 120.5,161.5 C 120.5,165.5 120.5,169.5 120.5,173.5C 93.8333,173.5 67.1667,173.5 40.5,173.5C 40.5,173.167 40.5,172.833 40.5,172.5C 66.8333,172.5 93.1667,172.5 119.5,172.5C 119.185,168.629 119.518,164.962 120.5,161.5 Z"/></g>
</svg>
