<svg xmlns="http://www.w3.org/2000/svg" width="162" height="174" fill-rule="evenodd" clip-rule="evenodd" image-rendering="optimizeQuality" shape-rendering="geometricPrecision" text-rendering="geometricPrecision">
  <path fill="#fdfdfd" d="M0 0h55c-2 4-2 8 0 12l-1 2H41v12h13v13H40V27c-4-1-8 0-12 1-1 3-1 7 1 11l-2 1H14c-1 8 0 17 1 26l-2 2c-5-2-9-2-13 0V0Z"/>
  <path fill="#fefefe" d="M107 1V0h55v66h-14V41c-4-1-8-2-12-1l-1-14h-14V14h-13l-1-13Z"/>
  <path fill="#1b757d" d="M55 0h52v12H55c-2-4-2-8 0-12Z"/>
  <path fill="#eff0ee" d="M55 12h39v14H54V14l1-2Z"/>
  <path fill="#cbeee6" d="m107 1 1 13v25H94V12h13V1Z"/>
  <path fill="#17747b" d="M54 14v12H41V14h13Z"/>
  <path fill="#036f76" d="M108 14h13v12h-13V14Z"/>
  <path fill="#45e4d0" d="M54 26h27v13H54V26Z"/>
  <path fill="#9defdd" d="M81 26h13v13H81V26Z"/>
  <path fill="#16c1b1" d="M108 26h13v13h-13V26Z"/>
  <path fill="#085c4f" d="M121 26h14v13h-14V26Z"/>
  <path fill="#247980" d="M40 39H29c-2-4-2-8-1-11 4-1 8-2 12-1v12Z"/>
  <path fill="#eff0ee" d="M29 39h11v27H27V40l2-1Z"/>
  <path fill="#45e4d0" d="M40 39h14v27H40V39Z"/>
  <path fill="#9defdd" d="M54 39h27v14H54V39Z"/>
  <path fill="#cdf0e7" d="M81 39h13v14H81V39Z"/>
  <path fill="#9defdd" d="M94 39h14v14H94V39Z"/>
  <path fill="#45e4d0" d="M108 39h13v14h14v13h-27V39Z"/>
  <path fill="#16c1b1" d="M121 39h14v14h-14V39Z"/>
  <path fill="#17747b" d="M27 40v26H15c-1-9-2-18-1-26h13Z"/>
  <path fill="#9faa9f" d="m135 26 1 14c4-1 8 0 12 1h-13V26Z"/>
  <path fill="#085c4f" d="M135 41h13v25h-13V41Z"/>
  <path fill="#eff0ee" d="M54 53h13v13H54V53Z"/>
  <path fill="#cdf0e7" d="M67 53h14v13H67V53Z"/>
  <path fill="#eff0ee" d="M81 53h13v13H81V53Z"/>
  <path fill="#cdf0e7" d="M94 53h14v13H94V53Z"/>
  <path fill="#eff0ee" d="M15 66h12v27h13v14H13V68l2-2Z"/>
  <path fill="#45e4d0" d="M27 66h13v27H27V66Z"/>
  <path fill="#eff0ee" d="M40 66h14v14H40V66Z"/>
  <path fill="#45e4d0" d="M54 66h27v14H67v13H54V66Z"/>
  <path fill="#9defdd" d="M81 66h27v27H94v14H54V93h13V80h14V66Z"/>
  <path fill="#11a7a3" d="M108 66h13v14h-13V66Z"/>
  <path fill="#16c1b1" d="M121 66h14v27h-14V66Z"/>
  <path fill="#11a7a3" d="M135 66h13v41h-27V93h14V66Z"/>
  <path fill="#085c4f" d="M148 67h13v53h-13V67Z"/>
  <path fill="#7faaa4" d="M148 67v-1h14v54h-1V67h-13Z"/>
  <path fill="#1a757d" d="M13 68v52H0V68c4-2 8-2 13 0Z"/>
  <path fill="#cdf0e7" d="M40 80h14v13H40V80Z"/>
  <path fill="#148e96" d="M108 80h13v27h-13V80Z"/>
  <path fill="#16c1b1" d="M40 93h14v14H40V93Z"/>
  <path fill="#45e4d0" d="M108 93v14H94V93h14Z"/>
  <path fill="#c6e8e0" d="M13 107h14c-1 4-2 8-1 13H14v26c-1-9-2-18-1-26v-13Z"/>
  <path fill="#45e4d0" d="M27 107h27v13H40v14H26v-14c-1-5 0-9 1-13Z"/>
  <path fill="#11a7a3" d="M54 107h54v13H54v-13Z"/>
  <path fill="#16c1b1" d="M108 107h27v27h-14v-14h-13v-13Z"/>
  <path fill="#2b9198" d="M135 107h13v13l-1 26v-26h-12v-13Z"/>
  <path fill="#fefffe" d="M0 120h13c-1 8 0 17 1 26h12l2 15h13v13H0v-54Z"/>
  <path fill="#085c4f" d="M26 120v26H14v-26h12Z"/>
  <path fill="#11a7a3" d="M54 120v27H40v-27h14Z"/>
  <path fill="#16c1b1" d="M54 120h54v27H54v-27Z"/>
  <path fill="#11a7a3" d="M108 120h13v27h-13v-27Z"/>
  <path fill="#085c4f" d="M135 120h12v26h-12v-26Z"/>
  <path fill="#fefdfd" d="M148 120h14v54h-41v-13h14v-15h12l1-26Z"/>
  <path fill="#35d5ce" d="M26 134h14v13H28v14l-2-15v-12Z"/>
  <path fill="#9defdd" d="M121 134h14v13h-14v-13Z"/>
  <path fill="#085c4f" d="M40 147v14H28v-14h12Z"/>
  <path fill="#148e96" d="M40 147h14l-1 14H40v-14Z"/>
  <path fill="#45e4d0" d="M54 147h27v14H53l1-14Z"/>
  <path fill="#9defdd" d="M81 147h27v14H81v-14Z"/>
  <path fill="#16c1b1" d="M108 147h13v14h-13v-14Z"/>
  <path fill="#085c4f" d="M121 147h14v14h-14v-14Z"/>
  <path fill="#085c50" d="M41 161h80v1c-1 3-2 7-1 11H41v-12Z"/>
  <path fill="#7ca9a2" d="M121 162v12H41v-1h79c-1-4 0-8 1-11Z"/>
</svg>
